<svg xmlns="http://www.w3.org/2000/svg" fill-rule="evenodd" stroke-linejoin="round" stroke-miterlimit="2" clip-rule="evenodd" viewBox="0 0 32 32" id="account"><path d="M7.427,25.77c-2.714,-2.384 -4.427,-5.878 -4.427,-9.77c-0,-7.175 5.825,-13 13,-13c7.175,0 13,5.825 13,13c-0,3.89 -1.712,7.384 -4.424,9.767c-2.289,2.012 -5.291,3.233 -8.576,3.233c-3.283,0 -6.284,-1.22 -8.573,-3.23Zm17.18,-2.923c1.497,-1.879 2.393,-4.259 2.393,-6.847c-0,-6.071 -4.929,-11 -11,-11c-6.071,-0 -11,4.929 -11,11c0,2.589 0.897,4.97 2.396,6.85c0.283,-1.533 1.586,-3.43 2.913,-4.239c0.056,-0.033 0.11,-0.066 0.163,-0.098c0.344,-0.205 0.777,-0.186 1.101,0.05c1.244,0.904 2.774,1.437 4.429,1.437c1.653,-0 3.184,-0.533 4.428,-1.437c0.322,-0.234 0.752,-0.254 1.095,-0.053c0.055,0.033 0.112,0.067 0.169,0.101c0.74,0.451 1.484,1.233 2.035,2.109c0.437,0.696 0.753,1.448 0.878,2.127Zm-15.457,1.757c1.88,1.499 4.261,2.396 6.85,2.396c2.59,0 4.973,-0.897 6.853,-2.398c-0.057,-0.414 -0.126,-0.863 -0.207,-1.355c-0.076,-0.466 -0.307,-0.981 -0.61,-1.462c-0.289,-0.459 -0.645,-0.89 -1.023,-1.206c-1.457,0.901 -3.174,1.421 -5.011,1.421c-1.838,0 -3.556,-0.521 -5.013,-1.422c-0.782,0.643 -1.482,1.757 -1.632,2.669c-0.081,0.493 -0.15,0.942 -0.207,1.357Zm6.852,-17.604c3.009,-0 5.452,2.443 5.452,5.452c-0,3.01 -2.443,5.453 -5.452,5.453c-3.01,-0 -5.453,-2.443 -5.453,-5.453c0,-3.009 2.443,-5.452 5.453,-5.452Zm-0,2c-1.906,-0 -3.453,1.547 -3.453,3.452c0,1.906 1.547,3.453 3.453,3.453c1.905,-0 3.452,-1.547 3.452,-3.453c-0,-1.905 -1.547,-3.452 -3.452,-3.452Z"></path></svg>