<svg xmlns="http://www.w3.org/2000/svg" fill-rule="evenodd" stroke-linejoin="round" stroke-miterlimit="2" clip-rule="evenodd" viewBox="0 0 32 32" id="marketing"><path d="M26.3,13.017c0.748,1.646 1.412,3.403 2.057,5.367c0.101,0.307 0.048,0.643 -0.143,0.904c-0.192,0.26 -0.497,0.412 -0.82,0.408c-4.153,-0.055 -7.947,0.401 -12.262,2.436l-0.232,-0.847l-0.001,-0.004c-0.932,-3.342 -2.649,-6.231 -5.038,-8.732c-0.014,-0.014 -0.028,-0.029 -0.043,-0.042l-0.607,-0.563c4.096,-2.765 6.728,-5.88 8.216,-9.339c0.135,-0.314 0.42,-0.537 0.757,-0.592c0.337,-0.055 0.679,0.066 0.906,0.32c1.398,1.56 2.585,3.021 3.618,4.467l0.121,-0.07c0.824,-0.476 1.804,-0.605 2.724,-0.359c0.92,0.247 1.704,0.848 2.18,1.673c0.476,0.825 0.605,1.805 0.359,2.724c-0.247,0.92 -0.848,1.704 -1.673,2.18l-0.119,0.069Zm-9.144,10.411l1.217,2.107c0.215,0.372 0.168,0.839 -0.116,1.161l-2.616,2.966c-0.213,0.241 -0.529,0.365 -0.85,0.333c-0.32,-0.032 -0.605,-0.216 -0.766,-0.495l-2.042,-3.537c0.487,-0.164 0.961,-0.377 1.413,-0.638l0.463,-0.267c1.14,-0.658 2.233,-1.195 3.297,-1.63Zm-3.841,-0.361c-0.151,0.085 -0.919,0.526 -0.919,0.526c-1.331,0.769 -2.913,0.977 -4.398,0.579c-1.485,-0.398 -2.751,-1.369 -3.519,-2.7l-0.002,-0.003c-0.769,-1.331 -0.977,-2.913 -0.579,-4.398c0.398,-1.485 1.369,-2.751 2.7,-3.519c0,-0 0.732,-0.424 0.864,-0.502l0.973,0.902c2.148,2.255 3.698,4.855 4.537,7.865l0.343,1.25Z" fill="#00c49d" class="color000000 svgShape"></path></svg>