<svg class="svg-icon" style="width: 1em; height: 1em;vertical-align: middle;fill: currentColor;overflow: hidden;" viewBox="0 0 1024 1024" version="1.1" xmlns="http://www.w3.org/2000/svg"><path d="M1023.765387 511.882694c0 21.627044-1.727604 42.870176-4.351003 63.79338-0.639853 5.118827-1.535648 10.173669-2.367457 15.22851a516.724251 516.724251 0 0 1-10.749537 51.828123c-0.831809 3.007311-1.471663 6.078607-2.303472 9.021933a512.778488 512.778488 0 0 1-352.239278 352.239278c-2.943325 0.831809-6.014622 1.471663-9.021933 2.303472-16.956114 4.478974-34.232155 7.998167-51.828123 10.749537-5.054842 0.831809-10.109683 1.727604-15.22851 2.367457-20.923205 2.623399-42.166337 4.351003-63.79338 4.351003s-42.870176-1.727604-63.793381-4.351003c-5.182812-0.639853-10.173669-1.535648-15.292496-2.367457a516.724251 516.724251 0 0 1-51.828122-10.749537c-2.943325-0.831809-6.014622-1.471663-8.957947-2.303472A513.482327 513.482327 0 0 1 71.21568 771.53519a515.124617 515.124617 0 0 1-51.444211-119.78055c-0.831809-2.943325-1.535648-6.014622-2.303472-9.021933a513.03443 513.03443 0 0 1-10.749537-51.828123c-0.767824-5.054842-1.663619-10.109683-2.367457-15.22851A511.818708 511.818708 0 0 1 0 511.882694c0-21.627044 1.727604-42.870176 4.351003-63.793381 0.639853-5.182812 1.535648-10.173669 2.367457-15.292496 2.751369-17.531982 6.270563-34.872008 10.813522-51.828122 0.767824-2.943325 1.471663-6.014622 2.303472-8.957947a515.124617 515.124617 0 0 1 51.444211-119.780551 514.186166 514.186166 0 0 1 181.014518-181.014517A516.04174 516.04174 0 0 1 372.010748 19.835454c2.943325-0.831809 6.014622-1.535648 8.957947-2.303472a516.894878 516.894878 0 0 1 51.828122-10.813522c5.118827-0.767824 10.109683-1.663619 15.292496-2.367457A511.818708 511.818708 0 0 1 511.882694 0c21.627044 0 42.870176 1.727604 63.79338 4.351003 5.118827 0.639853 10.173669 1.535648 15.22851 2.367457 17.531982 2.751369 34.872008 6.270563 51.828123 10.813522 3.007311 0.767824 6.078607 1.471663 9.021933 2.303472a515.124617 515.124617 0 0 1 119.78055 51.444211 513.482327 513.482327 0 0 1 232.458728 300.795068c0.831809 2.943325 1.471663 6.014622 2.303472 8.957947 4.478974 16.956114 7.998167 34.29614 10.749537 51.828123 0.831809 5.118827 1.727604 10.109683 2.367457 15.292495 2.623399 20.85922 4.351003 42.102352 4.351003 63.729396z m-809.222553-116.325343l-95.146196-95.210181C85.228468 363.628668 63.985337 434.908334 63.985337 511.882694c0 76.97436 21.243132 148.254025 55.411301 211.535523l95.146196-95.146196C200.402075 592.120306 191.95601 553.08925 191.95601 511.882694c0-41.142571 8.446064-80.173627 22.586824-116.325343zM511.882694 959.78005c76.97436 0 148.254025-21.179146 211.535523-55.347316l-95.146196-95.210181C592.120306 823.363313 553.08925 831.809377 511.882694 831.809377c-41.142571 0-80.173627-8.446064-116.325343-22.650809l-95.210181 95.210181C363.628668 938.600904 434.908334 959.78005 511.882694 959.78005z m0-895.794713c-76.97436 0-148.254025 21.243132-211.535524 55.411301l95.210181 95.146196C431.709067 200.402075 470.740122 191.95601 511.882694 191.95601c41.206557 0 80.237612 8.446064 116.325342 22.586824l95.146195-95.146196C660.136719 85.228468 588.857054 63.985337 511.882694 63.985337z m246.471516 382.440357a255.088209 255.088209 0 0 0-180.950532-181.014517 265.965716 265.965716 0 0 0-25.914061-5.502739C538.564579 257.604966 525.51157 255.941347 511.882694 255.941347s-26.681885 1.663619-39.670909 3.967091a255.280165 255.280165 0 0 0-206.800608 186.517256 263.406303 263.406303 0 0 0-5.502739 25.786091C257.604966 485.200808 255.941347 498.253817 255.941347 511.882694s1.663619 26.681885 3.967091 39.606923c1.343692 8.829976 3.263252 17.340026 5.502739 25.850076a254.981567 254.981567 0 0 0 181.014517 180.950532c8.446064 2.239487 17.0201 4.095062 25.786091 5.502739 12.989023 2.367457 26.042032 4.031076 39.670909 4.031076s26.681885-1.663619 39.606923-3.967091c8.829976-1.343692 17.340026-3.263252 25.850076-5.502739a254.874924 254.874924 0 0 0 180.950532-180.950532 268.738414 268.738414 0 0 0 5.502739-25.850076c2.367457-12.989023 4.031076-26.042032 4.031076-39.670908s-1.663619-26.681885-3.967091-39.670909a263.406303 263.406303 0 0 0-5.502739-25.786091z m146.078524-146.078524l-95.210181 95.210181C823.363313 431.709067 831.809377 470.740122 831.809377 511.882694c0 41.206557-8.446064 80.237612-22.650809 116.325342l95.210181 95.146195C938.600904 660.136719 959.78005 588.857054 959.78005 511.882694c0-76.97436-21.179146-148.254025-55.347316-211.535524z" fill="" /></svg>