<svg xmlns="http://www.w3.org/2000/svg" width="640" height="640" id="trash-can"><path fill="#010101" d="m-756.335-562.825-330.766 330.782a6 6 0 0 1-8.484 0l-12.372-12.371a5.999 5.999 0 0 1 0-8.484L-777.18-583.66a6.71 6.71 0 0 1 .149-.144c.199-.214.015-.037.164-.187a14.705 14.705 0 0 1 10.428-4.32c3.773 0 7.548 1.44 10.428 4.32h.001c2.88 2.88 4.319 6.654 4.319 10.428s-1.44 7.548-4.319 10.428h-.001c-.165.166.073-.082-.278.251l-.054.052.008.007zm-335.008 318.055 326.523-326.539.006.005c.073-.073.149-.146.229-.217l.018-.016c-.026.021-.023.015.074-.083.535-.536.804-1.239.804-1.943s-.268-1.408-.804-1.943l-.001-.001a2.74 2.74 0 0 0-1.943-.804c-.703 0-1.407.269-1.943.804v.001l-.055.054a5.602 5.602 0 0 1-.259.276l-326.536 326.52 3.887 3.886zm326.861-326.838-.002-.001.002.001zm-.001-.001c.026-.025.019-.018 0 0zm-.055.053.056-.053-.002-.001-.055.049c.019-.014-.077.081.001.005z"></path><path fill="#010101" d="m-1175.97-285.369 5.887-5.887a22.742 22.742 0 0 1 16.127-6.682 22.738 22.738 0 0 1 16.126 6.682l44.542 44.543 44.542 44.543c4.453 4.453 6.681 10.291 6.681 16.127s-2.227 11.672-6.681 16.127l-5.887 5.887-65.14 65.141a5.999 5.999 0 1 1-8.484-8.484l54.898-54.898-5.623-5.623-74.449 74.449a6 6 0 0 1-8.484 0 6 6 0 0 1 0-8.484l74.449-74.449-5.623-5.623-88.556 88.557a5.999 5.999 0 1 1-8.484-8.484l88.555-88.557-5.623-5.621-102.663 102.662a5.999 5.999 0 1 1-8.484-8.484l102.663-102.662-5.624-5.623-116.77 116.77a6 6 0 0 1-8.484 0 6 6 0 0 1 0-8.484l116.77-116.77-5.624-5.623-102.662 102.662a6 6 0 0 1-8.484 0 6 6 0 0 1 0-8.484l102.663-102.662-5.623-5.623-88.556 88.555a5.997 5.997 0 0 1-8.484 0 6 6 0 0 1 0-8.484l88.557-88.555-5.623-5.623-74.449 74.449a6 6 0 0 1-8.484 0 6 6 0 0 1 0-8.484l74.45-74.449-5.624-5.623-54.898 54.898a5.997 5.997 0 0 1-8.484 0 5.999 5.999 0 0 1 0-8.484l65.144-65.143zm14.37 2.598-7.644 7.643 52.186 52.188 52.186 52.186 7.644-7.645a10.778 10.778 0 0 0 3.165-7.643c0-2.768-1.055-5.533-3.165-7.643v-.002l-44.542-44.541-44.542-44.543c-2.11-2.109-4.876-3.166-7.643-3.166s-5.534 1.056-7.645 3.166zm-23.14-142.195c4.858 0 9.259 1.97 12.444 5.155a17.542 17.542 0 0 1 5.155 12.443 17.55 17.55 0 0 1-5.155 12.444 17.544 17.544 0 0 1-12.444 5.155 17.548 17.548 0 0 1-12.444-5.155 17.548 17.548 0 0 1-5.155-12.444 17.54 17.54 0 0 1 5.155-12.443 17.544 17.544 0 0 1 12.444-5.155zm3.96 13.639c-1.013-1.013-2.413-1.639-3.959-1.639s-2.947.626-3.96 1.639c-1.013 1.014-1.639 2.413-1.639 3.96s.626 2.947 1.639 3.96 2.413 1.64 3.96 1.64 2.947-.627 3.959-1.64 1.639-2.413 1.639-3.96-.627-2.946-1.639-3.96zm2.606 40.042c8.978 0 17.106 3.64 22.99 9.523 5.884 5.885 9.524 14.014 9.524 22.992 0 8.977-3.64 17.105-9.524 22.99-5.884 5.883-14.013 9.523-22.99 9.523s-17.106-3.641-22.991-9.523c-5.884-5.885-9.524-14.014-9.524-22.99 0-8.979 3.64-17.107 9.524-22.992 5.884-5.884 14.013-9.523 22.991-9.523zm14.506 18.008a20.455 20.455 0 0 0-14.506-6.008 20.451 20.451 0 0 0-14.507 6.008 20.455 20.455 0 0 0-6.007 14.508 20.458 20.458 0 0 0 6.007 14.506c3.712 3.711 8.841 6.008 14.507 6.008s10.794-2.297 14.506-6.008a20.458 20.458 0 0 0 6.008-14.506 20.454 20.454 0 0 0-6.008-14.508zm-57.66-51.286c6.25 0 11.91 2.534 16.008 6.631 4.097 4.098 6.631 9.758 6.631 16.008s-2.535 11.91-6.631 16.008c-4.098 4.097-9.757 6.631-16.008 6.631s-11.911-2.534-16.007-6.631c-4.097-4.098-6.631-9.758-6.631-16.008s2.534-11.91 6.631-16.008a22.572 22.572 0 0 1 16.007-6.631zm7.524 15.116c-1.925-1.925-4.585-3.115-7.523-3.115s-5.599 1.19-7.523 3.115-3.115 4.585-3.115 7.523 1.19 5.599 3.115 7.523c1.924 1.925 4.585 3.115 7.523 3.115s5.599-1.19 7.523-3.115 3.115-4.585 3.115-7.523-1.191-5.598-3.115-7.523zm239.579 207.898a10.175 10.175 0 0 0-7.212 2.986c-1.846 1.846-2.987 4.396-2.987 7.213s1.143 5.367 2.987 7.213c1.845 1.844 4.395 2.986 7.212 2.986s5.367-1.143 7.212-2.986c1.846-1.846 2.986-4.396 2.986-7.213s-1.141-5.367-2.986-7.213a10.172 10.172 0 0 0-7.212-2.986zm-15.696-5.496c4.018-4.018 9.567-6.504 15.696-6.504s11.68 2.486 15.696 6.504c4.018 4.016 6.503 9.566 6.503 15.695s-2.485 11.68-6.503 15.697c-4.017 4.018-9.567 6.502-15.696 6.502s-11.679-2.484-15.696-6.502-6.503-9.568-6.503-15.697 2.486-11.679 6.503-15.695zm-29.686 41.266a19.749 19.749 0 0 0-14.011 5.803 19.754 19.754 0 0 0-5.802 14.01 19.759 19.759 0 0 0 5.802 14.012 19.757 19.757 0 0 0 14.011 5.803 19.757 19.757 0 0 0 14.011-5.803 19.759 19.759 0 0 0 5.802-14.012 19.75 19.75 0 0 0-5.802-14.01 19.748 19.748 0 0 0-14.011-5.803zm-22.496-2.682c5.757-5.758 13.711-9.318 22.495-9.318s16.737 3.561 22.495 9.318c5.757 5.758 9.318 13.711 9.318 22.494 0 8.785-3.562 16.738-9.318 22.496-5.758 5.756-13.711 9.318-22.495 9.318s-16.738-3.563-22.495-9.318c-5.757-5.758-9.318-13.711-9.318-22.496 0-8.783 3.561-16.736 9.318-22.494zm25.517-52.951a5.277 5.277 0 0 0-3.743 1.549 5.278 5.278 0 0 0-1.55 3.742c0 1.463.593 2.787 1.55 3.744a5.276 5.276 0 0 0 3.743 1.549c1.462 0 2.786-.592 3.743-1.549s1.55-2.281 1.55-3.744c0-1.461-.593-2.785-1.55-3.742s-2.282-1.549-3.743-1.549zm-12.227-6.936c3.129-3.129 7.453-5.064 12.227-5.064s9.098 1.936 12.227 5.064a17.243 17.243 0 0 1 5.065 12.227c0 4.775-1.936 9.1-5.065 12.229s-7.453 5.064-12.227 5.064-9.098-1.936-12.227-5.064a17.245 17.245 0 0 1-5.065-12.229 17.235 17.235 0 0 1 5.065-12.227z"></path><path fill="none" stroke="#010101" stroke-miterlimit="2.613" stroke-width=".5" d="m-1155.258-294.002-19.825 21.084 109.195 110.77 20.139-21.084-109.509-110.77z"></path><path fill="#010101" d="m-95.316-563.402-227.866 227.881a6 6 0 0 1-8.484 0l-6.405-6.406-6.406-6.406a6 6 0 0 1 0-8.484L-116.6-584.679l.112-.109c.161-.175.06-.08.149-.17h.001c2.772-2.772 6.544-3.909 10.398-3.505 3.425.359 6.923 1.961 9.683 4.721l.001.001.001.001c2.76 2.76 4.361 6.258 4.721 9.683.402 3.841-.734 7.603-3.505 10.375l-.012.012.012.011h-.001c-.111.112.021-.029-.276.25l-.004.004.004.003zm-232.109 215.154 223.624-223.638.017.016a4.94 4.94 0 0 1 .209-.199l.033-.035c-.025.02-.036.028.021-.026l.005-.005-.002-.002c-.053.047-.11.096-.007-.007l.008.007h-.001l.002.002h.001l.001.001.008-.009c.07-.066.046-.044.007-.01.074-.115.091-.365.058-.687-.081-.772-.521-1.64-1.299-2.417l-.001-.001h-.001c-.778-.779-1.646-1.218-2.418-1.299-.342-.036-.602-.011-.694.083h-.001l-.004.004a5.531 5.531 0 0 1-.258.275l-223.635 223.622 2.163 2.163 2.164 2.162zm223.919-223.896.007-.01-.018.016.002.002.009-.008zm-.004.013c.047-.039.028-.023 0 0z"></path><path fill="#010101" d="m-398.074-361.17 12.311-12.311c4.572-4.572 10.563-6.857 16.553-6.857s11.981 2.285 16.554 6.857l46.138 46.137v.001c4.571 4.571 6.857 10.563 6.857 16.553s-2.286 11.981-6.857 16.552v.001l-12.312 12.312a5.999 5.999 0 0 1-8.484 0l-70.759-70.76a5.997 5.997 0 0 1-.001-8.485zm20.795-3.826-8.069 8.068 62.275 62.275 8.069-8.069c2.228-2.228 3.342-5.147 3.342-8.068s-1.114-5.842-3.342-8.069l-46.138-46.137a11.369 11.369 0 0 0-8.069-3.342c-2.92 0-5.841 1.113-8.068 3.342z"></path><path fill="#010101" d="m-568.639-111.339-.012-.012-.012-.012-.004-.004c-7.498-7.481-12.869-16.95-16.125-28.396-3.157-11.103-4.32-24.099-3.497-38.979a5.989 5.989 0 0 1 4.327-5.428c40.221-13.047 68.297-52.217 91.662-84.818 10.479-14.62 20.045-27.968 29.604-37.526 17.156-17.156 29.294-26.178 40.129-34.232 8.324-6.187 15.843-11.775 24.491-20.425a6 6 0 0 1 8.484 0l35.38 35.381 35.38 35.38a5.999 5.999 0 0 1 0 8.484c-8.648 8.648-14.237 16.166-20.425 24.49-8.054 10.836-17.076 22.974-34.232 40.129-9.558 9.559-22.905 19.125-37.525 29.604-18.307 13.121-38.662 27.71-55.209 44.957-6.586 6.864-12.596 14.166-17.67 21.99-5.021 7.742-9.139 16.012-12 24.895a5.985 5.985 0 0 1-5.367 4.146v.003c-14.88.823-27.877-.34-38.979-3.497-11.448-3.256-20.917-8.63-28.4-16.13zm-4.621-31.704c2.699 9.488 7.05 17.232 13.059 23.22v.001l.023.022c5.988 6.01 13.731 10.36 23.221 13.06 8.861 2.52 19.211 3.6 31.043 3.246 3.086-8.437 7.167-16.34 11.99-23.776 5.521-8.514 12.006-16.401 19.076-23.771 17.398-18.136 38.17-33.021 56.85-46.41 14.189-10.169 27.143-19.454 36.026-28.337 16.707-16.707 25.372-28.364 33.106-38.771 5.488-7.384 10.531-14.167 17.384-21.532l-31.214-31.214-31.214-31.214c-7.364 6.853-14.147 11.896-21.532 17.384-10.406 7.735-22.063 16.4-38.77 33.107-8.884 8.883-18.168 21.837-28.338 36.026-23.691 33.058-52.023 72.585-93.957 87.916-.352 11.831.728 22.182 3.247 31.043z"></path><path fill="none" stroke="#010101" stroke-linecap="round" stroke-linejoin="round" stroke-miterlimit="2.613" stroke-width="12" d="m-337.896-300.413-67.472 67.472m-143.854 126.165 54.593-54.593m136.385-158.237-33.736 33.736m14.238-54.068L-432.98-284.7m-140.245 153.922 79.238-79.238"></path><path fill="#010101" d="M-241.782-239.908a5.994 5.994 0 1 1 11.531-3.282c2.848 9.97 8.901 18.59 16.975 24.675 7.87 5.932 17.676 9.448 28.316 9.448s20.446-3.517 28.315-9.448c8.074-6.086 14.128-14.706 16.976-24.675a5.995 5.995 0 0 1 11.531 3.282c-3.574 12.512-11.165 23.325-21.288 30.955a58.838 58.838 0 0 1-35.534 11.886 58.841 58.841 0 0 1-35.535-11.886c-10.122-7.63-17.713-18.443-21.287-30.955z"></path><path fill="#010101" d="m-104.227-254.235-19.401 157.322a5.998 5.998 0 0 1-5.953 5.271v.003h-110.758a6.002 6.002 0 0 1-5.975-5.449l-19.406-157.356a5.998 5.998 0 0 1 5.954-6.725v-.002h149.613a6 6 0 0 1 5.926 6.936zm-30.657 150.595 17.947-145.531h-136.047l17.948 145.531h100.152z"></path><path fill="#010101" d="M-262.787-279.55h155.654c.101 0 .201.003.302.008.143-.011-.324-.018.119-.018 4.197 0 7.997 1.702 10.747 4.452 2.751 2.751 4.453 6.551 4.453 10.747s-1.702 7.996-4.453 10.747-6.55 4.452-10.747 4.452c-.482 0 .366-.009-.352-.026l-.047-.001v.001h-.022v.017h-155.654c-.104 0-.209-.003-.313-.008-.228.012.294.018-.109.018a15.153 15.153 0 0 1-10.747-4.452c-2.75-2.751-4.452-6.551-4.452-10.747s1.702-7.996 4.452-10.747a15.158 15.158 0 0 1 10.747-4.452c.556 0-.301.011.353.026l.046.002v-.002l.023.001v-.018zm77.827 12.001h-77.827v-.021c-.063 0-.125-.001-.188-.003l-.21-.007v-.001l-.024-.001v.003c.145.006.443.02 0 .02-.884 0-1.685.358-2.263.937s-.937 1.379-.937 2.263.358 1.685.937 2.263 1.379.937 2.263.937h.077c.114-.006.229-.01.345-.01h155.654v.021l.187.003.211.007v.002h.023v-.004c-.143-.007-.354-.019 0-.019a3.19 3.19 0 0 0 2.264-.937 3.19 3.19 0 0 0 .936-2.263 3.195 3.195 0 0 0-3.2-3.2h-.074c-.114.006-.23.011-.347.011h-77.827v-.001zm78.248 6.41c.163.004.098.001 0-.004v.004zm-156.497-6.443c-.104-.002-.07 0 0 .003v-.003z"></path><path fill="none" stroke="#010101" stroke-miterlimit="2.613" stroke-width="12" d="M-314.748-158.23c15.171 0 27.469 12.298 27.469 27.469 0 15.17-12.298 27.469-27.469 27.469-9.987 0-18.729-5.332-23.537-13.303a16.566 16.566 0 0 1-8.73 2.473c-9.189 0-16.64-7.449-16.64-16.639s7.45-16.639 16.64-16.639c3.201 0 6.192.905 8.73 2.473 4.807-7.972 13.55-13.303 23.537-13.303zm-41.136-39.497c9.189 0 16.639 7.449 16.639 16.639s-7.449 16.639-16.639 16.639-16.639-7.449-16.639-16.639 7.45-16.639 16.639-16.639zm36.588-20.403c6.406 0 11.599 5.193 11.599 11.6 0 6.405-5.192 11.599-11.599 11.599s-11.6-5.193-11.6-11.599c0-6.407 5.194-11.6 11.6-11.6zm146.589-111.618c-6.387 13.76-22.72 19.737-36.48 13.351-13.761-6.386-19.738-22.719-13.352-36.479 4.205-9.06 12.722-14.744 21.977-15.75a16.558 16.558 0 0 1 1.432-8.961c3.869-8.335 13.762-11.955 22.098-8.087 8.335 3.868 11.956 13.762 8.088 22.097a16.574 16.574 0 0 1-5.919 6.879c5.205 7.716 6.36 17.89 2.156 26.95zm53.144-20.686c-3.869 8.335-13.763 11.956-22.098 8.087-8.335-3.868-11.956-13.762-8.088-22.097 3.869-8.336 13.762-11.957 22.098-8.088 8.335 3.87 11.956 13.762 8.088 22.098zm3.103 41.777c-2.696 5.811-9.594 8.335-15.404 5.639-5.811-2.697-8.335-9.594-5.638-15.404 2.697-5.812 9.594-8.335 15.404-5.639 5.811 2.697 8.335 9.593 5.638 15.404z"></path><g fill="#010101"><path d="M173.705-492.358a5.995 5.995 0 0 1 11.531-3.281c8.473 29.667 26.482 55.314 50.5 73.419 23.441 17.667 52.623 28.142 84.264 28.142s60.822-10.475 84.264-28.142c24.018-18.104 42.027-43.752 50.502-73.419a5.994 5.994 0 1 1 11.531 3.281c-9.201 32.21-28.748 60.053-54.814 79.7-25.471 19.197-57.154 30.58-91.482 30.58s-66.01-11.383-91.48-30.58c-26.07-19.649-45.617-47.49-54.816-79.7z"></path><path d="M138.434-383.178a6 6 0 0 1-5.227 6.68 6 6 0 0 1-6.68-5.227l-18.379-149.041a5.997 5.997 0 0 1 5.954-6.724v-.003H525.9a6 6 0 0 1 5.926 6.937L478.381-97.17a5.997 5.997 0 0 1-5.953 5.271v.004H167.572a6.004 6.004 0 0 1-5.975-5.449l-15.729-127.543a5.998 5.998 0 0 1 11.907-1.453l15.1 122.443h294.25l51.992-421.596H120.883l17.551 142.315zm9.761 79.145a5.998 5.998 0 0 1-11.907 1.453l-4.963-40.232a5.998 5.998 0 0 1 11.907-1.453l4.963 40.232z"></path><path d="M105.787-588.077h428.426c.096 0 .191.002.285.007l.154-.004c.811-.021.371-.031.723-.031 8.648 0 16.479 3.507 22.146 9.175s9.174 13.498 9.174 22.146c0 8.648-3.506 16.479-9.174 22.146s-13.498 9.174-22.146 9.174c-.352 0 .088-.011-.723-.03l-.439-.012v.015H105.787a5.52 5.52 0 0 1-.289-.007l-.15.004c-.811.02-.371.03-.723.03-8.648 0-16.479-3.506-22.146-9.174s-9.174-13.498-9.174-22.146c0-8.647 3.506-16.478 9.174-22.146s13.5-9.175 22.146-9.175c.352 0-.088.011.723.031l.439.012v-.015zm214.213 12H105.787v-.019a7.4 7.4 0 0 1-.258-.005l-.463-.021c-.424-.011.301.017-.441.017a19.263 19.263 0 0 0-13.662 5.657 19.261 19.261 0 0 0-5.658 13.662 19.258 19.258 0 0 0 5.658 13.662 19.26 19.26 0 0 0 13.662 5.658c.736 0 .025.026.436.017.238-.029.48-.044.727-.044H534.213v.019c.086 0 .172.001.258.005l.463.021c.424.01-.299-.017.441-.017a19.26 19.26 0 0 0 13.662-5.658 19.258 19.258 0 0 0 5.658-13.662 19.261 19.261 0 0 0-5.658-13.662 19.263 19.263 0 0 0-13.662-5.657c-.736 0-.025-.026-.436-.017a6.21 6.21 0 0 1-.727.044H320zM151.082-310.303c12.521 0 23.859 5.076 32.066 13.283 8.205 8.207 13.283 19.543 13.283 32.066 0 12.521-5.078 23.859-13.283 32.066-8.207 8.205-19.545 13.283-32.066 13.283s-23.859-5.078-32.066-13.283c-8.207-8.207-13.283-19.545-13.283-32.066 0-12.523 5.076-23.859 13.283-32.066s19.543-13.283 32.066-13.283zm23.582 21.766c-6.035-6.033-14.373-9.766-23.582-9.766-9.211 0-17.549 3.732-23.582 9.766-6.035 6.035-9.768 14.373-9.768 23.584 0 9.209 3.732 17.547 9.768 23.582 6.033 6.033 14.371 9.766 23.582 9.766 9.209 0 17.547-3.732 23.582-9.766 6.033-6.035 9.768-14.373 9.768-23.582 0-9.211-3.735-17.549-9.768-23.584zm83.785 41.148c-.238-.006-.096.008-1.152.008-15.66 0-29.836 6.348-40.098 16.607-10.262 10.262-16.607 24.438-16.607 40.098 0 15.658 6.348 29.836 16.607 40.096 10.262 10.262 24.438 16.607 40.098 16.607 15.658 0 29.834-6.346 40.096-16.607C307.652-160.84 314-175.018 314-190.676c0-3.957-.381-7.738-1.104-11.318a56.36 56.36 0 0 0-3.342-10.795l-2.285-5.395 5.379-2.387a33.507 33.507 0 0 0 14.463-12.354c3.387-5.207 5.354-11.445 5.354-18.166 0-9.211-3.732-17.549-9.768-23.582-6.033-6.035-14.373-9.768-23.582-9.768a33.254 33.254 0 0 0-22.914 9.1c-6.004 5.674-9.902 13.553-10.395 22.344l-.328 5.881-5.883-.232a94.242 94.242 0 0 0-1.146-.041zm-3.918-11.937c1.775-9.662 6.611-18.256 13.467-24.732 8.125-7.676 19.076-12.381 31.117-12.381 12.521 0 23.859 5.076 32.066 13.283s13.283 19.545 13.283 32.066a45.14 45.14 0 0 1-7.322 24.682 45.522 45.522 0 0 1-14.633 14.137 67.855 67.855 0 0 1 2.105 7.934 68.952 68.952 0 0 1 1.385 13.662c0 18.971-7.691 36.146-20.123 48.58-12.434 12.434-29.609 20.123-48.58 20.123-18.973 0-36.148-7.689-48.582-20.123s-20.123-29.609-20.123-48.58 7.689-36.148 20.123-48.58c11.827-11.827 27.944-19.362 45.817-20.071zM207.646-366.43c9.23 0 17.59 3.743 23.639 9.793 6.051 6.051 9.793 14.408 9.793 23.639s-3.742 17.59-9.793 23.639c-6.049 6.051-14.408 9.793-23.639 9.793s-17.588-3.742-23.639-9.793c-6.049-6.049-9.791-14.408-9.791-23.639s3.742-17.588 9.791-23.639c6.052-6.05 14.409-9.793 23.639-9.793zm15.155 18.278a21.363 21.363 0 0 0-15.154-6.276 21.365 21.365 0 0 0-15.154 6.276 21.367 21.367 0 0 0-6.275 15.154c0 5.92 2.398 11.277 6.275 15.154a21.359 21.359 0 0 0 15.154 6.277c5.92 0 11.277-2.398 15.154-6.277a21.355 21.355 0 0 0 6.277-15.154 21.359 21.359 0 0 0-6.277-15.154zm-81.947-42.082c7.318 0 13.943 2.967 18.74 7.764 4.797 4.796 7.764 11.422 7.764 18.739s-2.967 13.944-7.764 18.74-11.422 7.763-18.74 7.763-13.943-2.967-18.74-7.763c-4.795-4.796-7.764-11.423-7.764-18.74s2.969-13.943 7.764-18.739a26.411 26.411 0 0 1 18.74-7.764zm10.255 16.247c-2.623-2.624-6.25-4.247-10.256-4.247s-7.631 1.623-10.256 4.247a14.465 14.465 0 0 0-4.248 10.256c0 4.006 1.625 7.632 4.248 10.257 2.625 2.623 6.25 4.246 10.256 4.246s7.633-1.623 10.256-4.246a14.459 14.459 0 0 0 4.248-10.257c0-4.005-1.623-7.632-4.248-10.256z"></path></g><g fill="#010101"><path d="M1154.232-527.598c1.471 4.63.934 9.41-1.129 13.392a17.542 17.542 0 0 1-10.303 8.676 17.513 17.513 0 0 1-13.393-1.127 17.552 17.552 0 0 1-8.676-10.303 17.51 17.51 0 0 1 1.129-13.392 17.54 17.54 0 0 1 10.303-8.676 17.513 17.513 0 0 1 13.393 1.127 17.538 17.538 0 0 1 8.676 10.303zm-11.769 7.908a5.628 5.628 0 0 0 .379-4.299 5.591 5.591 0 0 0-2.77-3.271 5.628 5.628 0 0 0-4.299-.378 5.582 5.582 0 0 0-3.271 2.77 5.626 5.626 0 0 0-.379 4.298 5.586 5.586 0 0 0 2.77 3.271 5.628 5.628 0 0 0 4.299.378 5.583 5.583 0 0 0 3.271-2.769zM1039.59-180.581c.213-4.845 2.377-9.149 5.701-12.193 3.322-3.041 7.795-4.816 12.633-4.604a17.53 17.53 0 0 1 12.191 5.701c3.041 3.322 4.816 7.796 4.604 12.632-.213 4.845-2.377 9.149-5.699 12.193-3.322 3.041-7.797 4.816-12.633 4.603a17.526 17.526 0 0 1-12.193-5.7c-3.042-3.322-4.817-7.796-4.604-12.632zm13.764-3.381a5.596 5.596 0 0 0-1.811 3.896 5.593 5.593 0 0 0 5.359 5.865 5.616 5.616 0 0 0 4.055-1.462 5.596 5.596 0 0 0 1.809-3.896 5.623 5.623 0 0 0-1.463-4.056 5.597 5.597 0 0 0-3.895-1.81 5.619 5.619 0 0 0-4.054 1.463zm51.709-321.115a32.364 32.364 0 0 1-2.096 24.767 32.41 32.41 0 0 1-19.029 16.034 32.38 32.38 0 0 1-24.768-2.096 32.403 32.403 0 0 1-16.033-19.03v-.001a32.361 32.361 0 0 1 2.096-24.766 32.41 32.41 0 0 1 19.029-16.034 32.375 32.375 0 0 1 24.768 2.096 32.41 32.41 0 0 1 16.033 19.03zm-12.737 19.282c2.422-4.68 3.063-10.274 1.346-15.673-1.713-5.391-5.459-9.582-10.127-11.999-4.68-2.422-10.275-3.062-15.674-1.346-5.393 1.714-9.582 5.459-11.998 10.128-2.422 4.68-3.063 10.274-1.346 15.673 1.713 5.391 5.459 9.582 10.127 11.998 4.68 2.422 10.275 3.062 15.674 1.346 5.391-1.713 9.582-5.458 11.998-10.127zm-37.799-3.216zm-11.39 3.609zm24.734-29.411zm-3.609-11.39zm29.246 341.426c.395-8.959 4.391-16.916 10.529-22.536 6.139-5.619 14.41-8.897 23.361-8.504 8.959.396 16.916 4.391 22.537 10.529 5.619 6.138 8.896 14.41 8.504 23.361-.395 8.959-4.391 16.916-10.529 22.537-6.139 5.619-14.41 8.897-23.361 8.503-8.959-.395-16.916-4.391-22.537-10.529-5.619-6.138-8.899-14.41-8.504-23.361zm18.592-13.725a20.468 20.468 0 0 0-6.639 14.24 20.482 20.482 0 0 0 5.363 14.783 20.464 20.464 0 0 0 14.24 6.639 20.486 20.486 0 0 0 14.783-5.362 20.468 20.468 0 0 0 6.639-14.24 20.484 20.484 0 0 0-5.363-14.783 20.468 20.468 0 0 0-14.24-6.639 20.49 20.49 0 0 0-14.783 5.362zm.213-354.173-.002-.001a10.606 10.606 0 0 0-5.254-6.22 10.651 10.651 0 0 0-8.143-.705 10.614 10.614 0 0 0-6.221 5.256 10.653 10.653 0 0 0-.705 8.142 10.616 10.616 0 0 0 5.256 6.22 10.651 10.651 0 0 0 8.143.705 10.614 10.614 0 0 0 6.221-5.256 10.659 10.659 0 0 0 .705-8.141zm11.39-3.608a22.528 22.528 0 0 1-1.455 17.234 22.571 22.571 0 0 1-13.252 11.163 22.53 22.53 0 0 1-17.236-1.455 22.57 22.57 0 0 1-11.162-13.252 22.53 22.53 0 0 1 1.455-17.235 22.566 22.566 0 0 1 13.252-11.162 22.53 22.53 0 0 1 17.236 1.455 22.57 22.57 0 0 1 11.162 13.251v.001zm-18.316 17.006zm3.609 11.391zm-10.082-31.714zm-3.609-11.391zm-36.942 427.86c.273-6.234 3.057-11.773 7.332-15.688 4.273-3.912 10.029-6.195 16.258-5.921 6.234.274 11.773 3.058 15.688 7.332 3.912 4.273 6.195 10.031 5.922 16.258-.275 6.234-3.059 11.773-7.334 15.688-4.273 3.912-10.029 6.194-16.256 5.921-6.234-.274-11.773-3.057-15.689-7.332-3.913-4.274-6.196-10.031-5.921-16.258zm15.395-6.876a10.611 10.611 0 0 0-3.441 7.392 10.636 10.636 0 0 0 2.779 7.68 10.62 10.62 0 0 0 7.391 3.441 10.64 10.64 0 0 0 7.68-2.78 10.623 10.623 0 0 0 3.443-7.392 10.647 10.647 0 0 0-2.781-7.68 10.613 10.613 0 0 0-7.391-3.441 10.64 10.64 0 0 0-7.68 2.78zM898.809-583.936a19.12 19.12 0 0 1 11.967 8.5 19.14 19.14 0 0 1 2.465 14.489v.001c-4.178 17.994-7.955 34.674-11.729 51.346-1.74 7.685-3.477 15.356-4.992 22.032a64682.23 64682.23 0 0 1 14.998-35.803c6.424-15.328 12.848-30.653 19.25-45.967a19.144 19.144 0 0 1 10.43-10.358c4.553-1.868 9.805-2.004 14.68.033a19.147 19.147 0 0 1 10.357 10.429c1.867 4.551 2.004 9.805-.033 14.679a47559.038 47559.038 0 0 0-14.447 34.604c2.58-5.399 5.6-11.721 9.283-19.441l.021.01.002-.01a19.135 19.135 0 0 1 10.918-9.825 19.12 19.12 0 0 1 14.66.797l.004.001a19.13 19.13 0 0 1 9.826 10.917 19.132 19.132 0 0 1-.691 14.438c-4.455 12.159-14.105 29.612-19.986 41.933-1.416 2.965-3.764 7.86-18.867 39.437 2.988-4.107 8.592-11.785 18.086-24.823 4.043-5.549 8.072-11.084 22.357-30.767a17.271 17.271 0 0 1 11.307-6.923c4.385-.695 9.027.275 12.887 3.077a17.271 17.271 0 0 1 6.922 11.306c1.371 8.636-3.734 13.782-8.309 20.096a6785.034 6785.034 0 0 0-4.422 6.107l-5.662-2.397-4.85-3.516a7665.26 7665.26 0 0 1 10.463-14.437 5.33 5.33 0 0 0 .967-3.979 5.316 5.316 0 0 0-2.141-3.477c-1.205-.875-2.639-1.181-3.98-.968s-2.607.944-3.479 2.142c-13.867 19.111-27.799 38.179-41.676 57.283l-.023.023c-3.221 4.393-7.141 6.065-10.793 5.95a10.678 10.678 0 0 1-5.48-1.706c-1.504-.966-2.773-2.311-3.707-3.899-1.975-3.354-2.432-7.854-.291-12.09l.008.003c2.766-5.786 5.221-10.95 19.855-41.6a107761.42 107761.42 0 0 0 19.902-41.707l.02.009.004-.01a7.197 7.197 0 0 0 .283-5.522 7.205 7.205 0 0 0-3.686-4.121 7.203 7.203 0 0 0-5.523-.282 7.198 7.198 0 0 0-4.076 3.595l-.021.09c-3.109 6.519-12.219 25.497-21.273 44.364a26986.844 26986.844 0 0 0-16.1 33.584l-.281.539c-2.418 3.938-5.686 5.915-8.791 6.321-1.904.249-3.721-.061-5.322-.858-1.58-.786-2.91-2.033-3.867-3.667-1.604-2.744-2.063-6.606-.43-10.932l.07-.188a65330.135 65330.135 0 0 0 19.676-47.139c6.529-15.655 13.057-31.308 19.592-46.939a7.223 7.223 0 0 0 .033-5.538 7.187 7.187 0 0 0-3.889-3.914 7.211 7.211 0 0 0-5.539-.033 7.192 7.192 0 0 0-3.914 3.89c-6.402 15.314-12.826 30.64-19.25 45.967-6.363 15.182-12.729 30.368-19.076 45.549l-.047.07c-1.676 3.866-4.854 5.875-8.301 6.343l.002.003a11.37 11.37 0 0 1-5.014-.462 11.566 11.566 0 0 1-4.354-2.589c-2.58-2.445-4.092-6.088-3.178-10.531l.023-.141c2.959-12.943 5.084-22.332 7.203-31.69 3.986-17.612 7.975-35.223 11.729-51.394a7.189 7.189 0 0 0-.918-5.443 7.205 7.205 0 0 0-4.514-3.204h-.002a7.208 7.208 0 0 0-8.644 5.432c-.537 2.335-1.334 6.157-2.369 11.131-7.697 36.978-27.891 133.963-49.832 132.046l-3.838-.336-1.295-3.648a9393.41 9393.41 0 0 0-8.059-22.553c-3.881-10.834-7.764-21.678-12.564-35.409l-.006.002c-.912-2.571-2.791-4.535-5.09-5.63s-5.016-1.314-7.602-.397a9.893 9.893 0 0 0-5.631 5.088 9.921 9.921 0 0 0-.396 7.601l.768 2.167c9.49 26.809 19.713 55.68 11.135 85.266-4.98 17.182 5.988 46.854 13.527 63.201-11.986 28.65-25.703 58.771-41.25 85.821l-8.352 2.424-5.156-3.047c18.414-31.022 37.221-74.501 41.691-85.02-4.133-9.541-18.293-44.812-11.945-66.707 7.498-25.858-2.066-52.871-10.947-77.954l-.768-2.167a21.84 21.84 0 0 1 .867-16.741 21.86 21.86 0 0 1 12.473-11.229 21.842 21.842 0 0 1 16.742.867 21.865 21.865 0 0 1 11.229 12.474v.023c3.436 9.825 8.004 22.579 12.572 35.336 1.801 5.03 3.602 10.059 6.039 16.911 11.398-12.427 27.488-89.69 33.969-120.826 1.076-5.169 1.904-9.142 2.416-11.366a19.123 19.123 0 0 1 8.5-11.968 19.165 19.165 0 0 1 14.49-2.459z"></path><path d="M1194.707-427.384c5.34-2.828 11.332-3.222 16.697-1.571a21.89 21.89 0 0 1 12.945 10.709c2.828 5.342 3.221 11.33 1.57 16.697s-5.352 10.107-10.709 12.944c-6.891 3.648-30.594 16.229-54.326 28.823-7.859 4.17-15.662 8.312-27.566 14.621 6.168-2.877 9.354-4.359 12.527-5.836 22.145-10.305 44.303-20.615 54.08-25.193a21.86 21.86 0 0 1 16.764-.75 21.873 21.873 0 0 1 12.379 11.335v.001a21.868 21.868 0 0 1 .75 16.764 21.86 21.86 0 0 1-11.336 12.376v.001c-16.832 7.88-33.682 15.769-50.537 23.652a71369.761 71369.761 0 0 1-50.57 23.638l-.117.071c-.779.343-1.211.909-1.295 1.452a.969.969 0 0 0-.002.34c.32.188 1.135.168 2.604-.207l.004.017c12.656-3.296 25.326-6.579 37.992-9.861 14.936-3.869 29.867-7.739 44.771-11.627a19.588 19.588 0 0 1 14.895 2.07 19.603 19.603 0 0 1 9.082 12.006 19.585 19.585 0 0 1-2.07 14.895 19.606 19.606 0 0 1-12.006 9.082c-6.543 1.702-16.664 4.36-26.779 7.018-6.441 1.691-12.893 3.386-23.865 6.246l.002.005c-.49.131-.809.2-1.242.295-5.234 1.141-27.91 6.085-66.088 29.597-18.652 11.487-43.996 20.822-67.869 27.404-29.832 8.225-58.033 12.101-68.578 10.586-11.779 4.509-44.279 23.246-75.92 42.858-32.768 20.31-64.313 41.355-70.564 48.238-4.762 5.243-11.209 3.604-18.502-3.02-10.965-9.96-27.115-34.277-40.232-59.434-13.254-25.417-23.566-52.105-22.678-66.547.609-9.877 5.203-15.552 15.141-14.939 31.604 1.946 130.854-49.22 147.164-57.755 3.174-11.207 16.951-55.686 39.639-71.232 27.154-18.611 39.002-51.323 50.004-81.697l.943-2.608c2.363-6.538 7.164-11.503 13.014-14.245a25.125 25.125 0 0 1 19.27-.884c6.537 2.364 11.502 7.164 14.244 13.013a25.134 25.134 0 0 1 .885 19.27v.024c-4.908 13.382-10.131 27.97-15.354 42.554a7883.767 7883.767 0 0 1-7.922 22.037c19.203-.242 96.148-62.177 126.828-86.873 4.84-3.895 8.559-6.889 10.951-8.734a21.843 21.843 0 0 1 16.182-4.398c5.576.712 10.875 3.547 14.578 8.336a21.848 21.848 0 0 1 4.398 16.183 21.864 21.864 0 0 1-8.336 14.578l-.023.023c-15.307 11.754-32.787 25.333-50.264 38.908a16392.414 16392.414 0 0 1-30.951 23.987l.01.013c-.225.183-.313.311-.305.38a.698.698 0 0 0 .064.224 70648.7 70648.7 0 0 1 52.65-27.841c17.67-9.34 35.338-18.677 52.979-28.019zm13.182 9.866a9.95 9.95 0 0 0-7.604.728c-17.641 9.342-35.311 18.679-52.98 28.017a66051.587 66051.587 0 0 0-52.924 27.985l-.07.024c-4.086 2.094-8.148 1.584-11.363-.408a12.52 12.52 0 0 1-3.93-3.898c-1.006-1.576-1.68-3.369-1.912-5.227-.484-3.872.779-8.018 4.664-11.161l.117-.07c4.979-3.849 17.98-13.948 31.012-24.071 16.039-12.459 32.08-24.918 50.357-38.953l.004.003a9.921 9.921 0 0 0 3.762-6.589 9.949 9.949 0 0 0-2.008-7.371 9.924 9.924 0 0 0-6.609-3.79 9.96 9.96 0 0 0-7.371 2.008c-2.08 1.605-5.852 4.642-10.762 8.594-35.285 28.404-127.824 102.892-146.053 85.042l-2.738-2.683 1.309-3.621c1.752-4.847 5.762-16.041 9.779-27.262 4.969-13.877 9.941-27.761 15.4-42.648l.008.002a13.214 13.214 0 0 0-.471-10.108 13.204 13.204 0 0 0-7.494-6.825 13.207 13.207 0 0 0-10.129.462 13.201 13.201 0 0 0-6.826 7.495l-.945 2.609c-11.633 32.121-24.162 66.714-54.504 87.509-22.273 15.265-35.479 66.785-35.518 66.935l-.664 2.561-2.336 1.235c-.34.18-117.953 62.646-155.736 60.319-1.576-.098-2.336 1.298-2.484 3.689-.75 12.17 8.928 36.551 21.318 60.313 12.527 24.024 27.68 47.002 37.701 56.104 1.732 1.573.758 4.722 1.58 3.816 6.963-7.664 39.564-29.535 73.143-50.348 33.684-20.879 68.65-40.896 79.9-44.58l3.773.023c6.172 2.09 33.545-1.873 63.918-10.247 22.969-6.333 47.209-15.227 64.775-26.045 40.012-24.641 64.244-29.924 69.838-31.144.48-.104.633-.129.727-.153h.023c4.916-1.281 14.375-3.767 23.84-6.252 7.766-2.04 15.523-4.077 26.826-7.017a7.663 7.663 0 0 0 4.693-3.552 7.686 7.686 0 0 0 .805-5.848 7.665 7.665 0 0 0-3.551-4.693 7.692 7.692 0 0 0-5.848-.806c-14.904 3.889-29.836 7.758-44.771 11.628-12.676 3.284-25.355 6.57-38.02 9.868l-.023.023c-5.908 1.511-10.459.197-13.496-2.463a11.681 11.681 0 0 1-3.439-5.255c-.602-1.869-.744-3.886-.432-5.868.672-4.276 3.453-8.467 8.279-10.594l.006.014a84313.65 84313.65 0 0 0 50.447-23.58c16.855-7.885 33.705-15.773 50.537-23.653a9.93 9.93 0 0 0 5.146-5.627 9.944 9.944 0 0 0-5.955-12.771 9.94 9.94 0 0 0-7.623.328 22163.973 22163.973 0 0 1-54.08 25.24c-20.848 9.7-39.373 18.317-40.514 18.851l-.586.234c-4.881 1.686-9.055 1.106-11.955-.703a9.85 9.85 0 0 1-3.82-4.363c-.779-1.741-1.041-3.679-.721-5.668.551-3.44 2.895-7.057 7.387-9.642l.188-.116c6.877-3.642 30.701-16.285 54.373-28.847a56189.54 56189.54 0 0 1 54.373-28.823h.002a9.915 9.915 0 0 0 4.848-5.866 9.944 9.944 0 0 0-.727-7.604 9.919 9.919 0 0 0-5.866-4.846zm5.867 4.85zm10.594-5.578zm-14.717 19.048h.002-.002zm5.578 10.594z"></path></g><g fill="#010101"><path d="m-755.979 95.92-306.773 306.788a5.998 5.998 0 0 1-8.483 0l-11.475-11.474a6 6 0 0 1 0-8.484l306.785-306.77c.049-.049.099-.097.148-.143.193-.208-.011-.01.142-.163 2.756-2.756 6.368-4.135 9.979-4.135s7.224 1.379 9.979 4.135 4.134 6.368 4.134 9.979c0 3.611-1.378 7.224-4.134 9.979-.239.239.101-.111-.268.241l-.043.04.009.007zm-311.014 294.062 302.53-302.546.018.018c.07-.07.143-.138.217-.206l.042-.039c-.024.021-.182.158-.007-.008l.044-.042-.002-.001c-.07.065-.225.207-.009-.009.412-.412.618-.954.618-1.495a2.109 2.109 0 0 0-2.113-2.114 2.11 2.11 0 0 0-1.495.619l-.043.042a5.58 5.58 0 0 1-.248.264l-302.542 302.527 2.99 2.99zm302.844-302.823c.047-.045.031-.031-.002-.001l.002.001zm-.038.05c.005-.003.004-.003 0 0z"></path><path d="m-1148.587 391.606 37.367-37.366a5.999 5.999 0 0 1 8.484 0l68.494 68.494a6 6 0 0 1 0 8.483l-37.367 37.367a5.999 5.999 0 0 1-8.484 0l-68.494-68.494a6 6 0 0 1 0-8.484zm41.609-24.64-28.883 28.883 60.01 60.01 28.883-28.882-60.01-60.011z"></path><path d="m-1114.34 434.338-32.188-32.188-82.975 10.003 68.674 68.675 68.675 68.675 10.003-82.976-32.189-32.189zm-25.763-42.732 34.247 34.247 34.247 34.247-.004.004a5.984 5.984 0 0 1 1.715 4.941l-11.803 97.906a5.999 5.999 0 0 1-10.22 3.751l-77.393-77.392-77.392-77.393.003-.004a5.994 5.994 0 0 1 3.536-10.191l97.872-11.798a5.998 5.998 0 0 1 5.192 1.682z"></path><path d="M-1240.424 413.302a5.983 5.983 0 1 1-4.078-11.25l135.485-49.194a5.983 5.983 0 1 1 4.078 11.25l-135.485 49.194zm158.37 151.198a5.983 5.983 0 0 1-11.25-4.078l49.195-135.484a5.984 5.984 0 0 1 7.664-3.587 5.986 5.986 0 0 1 3.586 7.664l-49.195 135.485zm76.992-121.518c-2.45 0-4.668.992-6.273 2.597-1.604 1.604-2.598 3.823-2.598 6.273s.993 4.668 2.598 6.272a8.848 8.848 0 0 0 6.273 2.598c2.451 0 4.668-.993 6.272-2.598s2.598-3.822 2.598-6.272-.993-4.669-2.598-6.273-3.82-2.597-6.272-2.597zm-14.757-5.886a20.807 20.807 0 0 1 14.758-6.114 20.808 20.808 0 0 1 14.757 6.114c3.776 3.777 6.113 8.995 6.113 14.757s-2.337 10.979-6.113 14.757c-3.777 3.776-8.995 6.113-14.757 6.113s-10.98-2.337-14.758-6.113c-3.776-3.777-6.113-8.995-6.113-14.757s2.336-10.98 6.113-14.757zm10.203 60.073a27.91 27.91 0 0 0-19.794 8.198 27.905 27.905 0 0 0-8.198 19.795c0 7.73 3.133 14.729 8.198 19.794s12.063 8.198 19.794 8.198 14.729-3.133 19.794-8.198a27.905 27.905 0 0 0 8.198-19.794c0-7.731-3.133-14.729-8.198-19.795a27.91 27.91 0 0 0-19.794-8.198zm-28.278-.285c7.236-7.237 17.235-11.715 28.277-11.715 11.043 0 21.041 4.478 28.278 11.715s11.714 17.235 11.714 28.278c0 11.042-4.477 21.041-11.714 28.278s-17.236 11.714-28.278 11.714c-11.041 0-21.041-4.477-28.277-11.714-7.238-7.237-11.715-17.236-11.715-28.278.001-11.043 4.477-21.041 11.715-28.278zm-183.548 33.314c-3.492 0-6.653 1.416-8.94 3.703s-3.702 5.448-3.702 8.94 1.415 6.653 3.702 8.94 5.448 3.703 8.94 3.703 6.654-1.416 8.941-3.703 3.702-5.448 3.702-8.94-1.415-6.653-3.702-8.94a12.603 12.603 0 0 0-8.941-3.703zm-17.424-4.781a24.563 24.563 0 0 1 17.424-7.219 24.57 24.57 0 0 1 17.426 7.219c4.459 4.46 7.218 10.621 7.218 17.425s-2.759 12.965-7.219 17.425a24.563 24.563 0 0 1-17.425 7.219 24.563 24.563 0 0 1-17.424-7.219c-4.461-4.46-7.219-10.621-7.219-17.425s2.758-12.966 7.219-17.425zm19.834-60.548c-4.771 0-9.091 1.935-12.217 5.061s-5.061 7.445-5.061 12.217 1.934 9.092 5.061 12.218c3.126 3.126 7.445 5.06 12.217 5.06s9.092-1.935 12.217-5.061c3.127-3.125 5.061-7.445 5.061-12.217s-1.934-9.091-5.061-12.217a17.224 17.224 0 0 0-12.217-5.061zm-20.701-3.424c5.299-5.299 12.617-8.576 20.701-8.576s15.403 3.278 20.701 8.576c5.299 5.298 8.576 12.617 8.576 20.701s-3.277 15.403-8.576 20.701c-5.298 5.299-12.617 8.576-20.701 8.576s-15.402-3.277-20.701-8.576c-5.299-5.298-8.576-12.617-8.576-20.701s3.277-15.403 8.576-20.701zm284.275 2.234a15.286 15.286 0 0 0-10.842 4.49c-2.773 2.773-4.489 6.607-4.489 10.842s1.716 8.067 4.489 10.841a15.288 15.288 0 0 0 10.842 4.49c4.233 0 8.067-1.717 10.842-4.49 2.773-2.773 4.489-6.606 4.489-10.841s-1.716-8.068-4.489-10.842a15.288 15.288 0 0 0-10.842-4.49zm-19.326-3.994c4.946-4.946 11.779-8.006 19.326-8.006 7.546 0 14.379 3.06 19.325 8.006s8.006 11.779 8.006 19.326c0 7.546-3.06 14.379-8.006 19.325s-11.779 8.006-19.325 8.006-14.379-3.06-19.326-8.006c-4.946-4.946-8.006-11.779-8.006-19.325 0-7.547 3.06-14.38 8.006-19.326zm-201.342 70.16c-1.574 0-3 .638-4.031 1.669-1.03 1.03-1.668 2.456-1.668 4.03s.638 3 1.668 4.03c1.031 1.03 2.457 1.669 4.031 1.669s3-.639 4.03-1.669 1.669-2.456 1.669-4.03-.639-3-1.669-4.03a5.676 5.676 0 0 0-4.03-1.669zm-12.516-6.816c3.203-3.203 7.629-5.185 12.516-5.185s9.311 1.981 12.514 5.185 5.186 7.628 5.186 12.515-1.982 9.312-5.186 12.515-7.627 5.185-12.514 5.185-9.313-1.981-12.516-5.185-5.184-7.628-5.184-12.515 1.981-9.312 5.184-12.515z"></path></g><path fill="#010101" d="M-553.445 297.938a2.037 2.037 0 0 0-2.04 2.04 2.036 2.036 0 0 0 2.04 2.04 2.04 2.04 0 1 0 0-4.08zm-9.928-7.888a14 14 0 0 1 9.928-4.113c3.877 0 7.387 1.572 9.928 4.113s4.113 6.052 4.113 9.928a14 14 0 0 1-4.113 9.928 13.996 13.996 0 0 1-9.928 4.112 14 14 0 0 1-9.928-4.112 14 14 0 0 1-4.113-9.928c0-3.876 1.572-7.387 4.113-9.928zm7.777 47.499c-3.42 0-6.516 1.387-8.756 3.627-2.238 2.238-3.625 5.334-3.625 8.754s1.387 6.516 3.625 8.754a12.345 12.345 0 0 0 8.756 3.627 12.34 12.34 0 0 0 8.754-3.627c2.24-2.238 3.626-5.334 3.626-8.754s-1.386-6.516-3.626-8.754a12.34 12.34 0 0 0-8.754-3.627zm-17.239-4.858a24.305 24.305 0 0 1 17.239-7.143c6.73 0 12.826 2.73 17.238 7.143s7.143 10.508 7.143 17.238c0 6.732-2.73 12.826-7.143 17.238s-10.508 7.143-17.238 7.143c-6.732 0-12.827-2.73-17.239-7.143s-7.142-10.506-7.142-17.238c0-6.73 2.73-12.825 7.142-17.238zm49.554-20.61c-1.529 0-2.913.62-3.914 1.62-1.001 1.001-1.62 2.385-1.62 3.914s.619 2.912 1.62 3.914c1.001 1 2.385 1.619 3.914 1.619s2.913-.619 3.914-1.619c1.001-1.002 1.62-2.385 1.62-3.914s-.619-2.913-1.62-3.914a5.522 5.522 0 0 0-3.914-1.62zm-12.399-6.864a17.486 17.486 0 0 1 12.398-5.136 17.48 17.48 0 0 1 12.398 5.136 17.484 17.484 0 0 1 5.136 12.398c0 4.84-1.963 9.225-5.136 12.398a17.487 17.487 0 0 1-12.398 5.135 17.482 17.482 0 0 1-12.398-5.135c-3.173-3.174-5.136-7.559-5.136-12.398s1.963-9.224 5.136-12.398zm262.811 223.058c-3.643 3.643-8.673 5.895-14.229 5.895s-10.587-2.252-14.229-5.895a20.056 20.056 0 0 1-5.895-14.227 20.058 20.058 0 0 1 5.895-14.229c3.642-3.643 8.673-5.895 14.229-5.895s10.586 2.252 14.229 5.895a20.058 20.058 0 0 1 5.895 14.229 20.061 20.061 0 0 1-5.895 14.227zm-14.229-6.105a8.094 8.094 0 0 0 5.744-2.379 8.092 8.092 0 0 0 2.378-5.742 8.098 8.098 0 0 0-2.378-5.744 8.094 8.094 0 0 0-5.744-2.379 8.09 8.09 0 0 0-5.744 2.379 8.094 8.094 0 0 0-2.379 5.744c0 2.242.909 4.273 2.379 5.744a8.097 8.097 0 0 0 5.744 2.377zm30.653-53.303c-6.929 6.928-16.499 11.213-27.07 11.213-10.57 0-20.141-4.285-27.069-11.213-6.928-6.928-11.214-16.498-11.214-27.07 0-10.57 4.286-20.141 11.214-27.068 6.929-6.928 16.499-11.215 27.069-11.215 10.571 0 20.142 4.287 27.07 11.215 6.928 6.928 11.214 16.498 11.214 27.068s-4.287 20.142-11.214 27.07zm-27.071-.787c7.259 0 13.83-2.941 18.586-7.697s7.697-11.326 7.697-18.586c0-7.258-2.941-13.83-7.697-18.584a26.203 26.203 0 0 0-18.586-7.699 26.202 26.202 0 0 0-18.585 7.699 26.195 26.195 0 0 0-7.697 18.584c0 7.26 2.941 13.83 7.697 18.586s11.328 7.697 18.585 7.697zm-34.46 40.775a26.175 26.175 0 0 1-18.567 7.691 26.174 26.174 0 0 1-18.566-7.691c-4.753-4.752-7.692-11.318-7.692-18.568s2.94-13.814 7.692-18.566 11.316-7.691 18.566-7.691c7.251 0 13.815 2.939 18.567 7.691s7.691 11.316 7.691 18.566-2.939 13.817-7.691 18.568zm-18.567-4.308c3.938 0 7.503-1.596 10.083-4.176s4.176-6.145 4.176-10.084c0-3.938-1.596-7.502-4.176-10.082s-6.145-4.176-10.083-4.176c-3.938 0-7.504 1.596-10.083 4.176s-4.175 6.145-4.175 10.082c0 3.939 1.596 7.504 4.175 10.084s6.146 4.176 10.083 4.176z"></path><path fill="none" stroke="#010101" stroke-linecap="round" stroke-linejoin="round" stroke-miterlimit="2.613" stroke-width="12" d="m-98.214 78.214-483.573 483.571m350.465-365.954 15.49 15.49m-21.505-9.474 15.489 15.49m-12.511-18.468 15.489 15.49m120.915-110.068-484.09 379.936m484.09-357.956-484.09 293.005m457.778-341.321-380.03 484.09m358.069-484.09-293.175 484.09"></path><g fill="#010101"><path d="M135.775 238.465c6.25 0 11.91 2.535 16.008 6.632s6.631 9.757 6.631 16.007c0 6.251-2.533 11.91-6.631 16.008s-9.758 6.631-16.008 6.631-11.91-2.533-16.008-6.631a22.574 22.574 0 0 1-6.631-16.008c0-6.25 2.535-11.91 6.631-16.007a22.573 22.573 0 0 1 16.008-6.632zm7.524 15.115a10.606 10.606 0 0 0-7.523-3.115 10.608 10.608 0 0 0-7.523 3.115 10.611 10.611 0 0 0-3.115 7.523c0 2.939 1.191 5.6 3.115 7.523a10.605 10.605 0 0 0 7.523 3.115c2.939 0 5.6-1.189 7.523-3.115a10.598 10.598 0 0 0 3.115-7.523c0-2.937-1.19-5.598-3.115-7.523zm35.631 18.162c8.977 0 17.105 3.641 22.99 9.524 5.884 5.884 9.523 14.013 9.523 22.991 0 8.977-3.641 17.105-9.523 22.99-5.885 5.885-14.014 9.523-22.99 9.523-8.979 0-17.107-3.639-22.991-9.523s-9.524-14.014-9.524-22.99c0-8.979 3.641-17.107 9.524-22.991s14.012-9.524 22.991-9.524zm14.506 18.008a20.457 20.457 0 0 0-14.506-6.008 20.46 20.46 0 0 0-14.508 6.008 20.46 20.46 0 0 0-6.008 14.508 20.457 20.457 0 0 0 6.008 14.506 20.46 20.46 0 0 0 14.508 6.008 20.455 20.455 0 0 0 14.506-6.008 20.457 20.457 0 0 0 6.008-14.506 20.468 20.468 0 0 0-6.008-14.508zm-21.073-71.688c4.859 0 9.259 1.971 12.443 5.155a17.54 17.54 0 0 1 5.156 12.443c0 4.859-1.971 9.26-5.156 12.444-3.185 3.185-7.584 5.155-12.443 5.155s-9.259-1.971-12.443-5.155a17.541 17.541 0 0 1-5.156-12.444c0-4.858 1.971-9.258 5.156-12.443a17.54 17.54 0 0 1 12.443-5.155zm3.96 13.639c-1.013-1.013-2.413-1.639-3.96-1.639s-2.947.626-3.959 1.639c-1.014 1.013-1.641 2.412-1.641 3.959s.627 2.947 1.641 3.961c1.012 1.012 2.412 1.639 3.959 1.639s2.947-.627 3.96-1.639c1.013-1.014 1.64-2.414 1.64-3.961s-.627-2.946-1.64-3.959zM331.174 71.193h48.111c6.533 0 12.471 2.669 16.771 6.969 4.301 4.301 6.969 10.238 6.969 16.772v24.109h-95.594V94.935c0-6.535 2.669-12.472 6.969-16.772 4.301-4.3 10.239-6.97 16.774-6.97zm48.111 12h-48.111c-3.225 0-6.158 1.323-8.289 3.454-2.131 2.131-3.453 5.065-3.453 8.288v12.109h71.594V94.935c0-3.223-1.322-6.157-3.453-8.288-2.132-2.13-5.065-3.454-8.288-3.454z"></path><path d="M232.531 562.775 211.836 220.36a33.616 33.616 0 0 1-18.371-9.431c-6.099-6.099-9.871-14.525-9.871-23.831s3.772-17.731 9.871-23.831c6.1-6.099 14.525-9.872 23.83-9.872h8.533a29.04 29.04 0 0 1-5.592-17.176c0-8.055 3.266-15.35 8.546-20.63 5.279-5.28 12.574-8.546 20.63-8.546h211.632c8.055 0 15.35 3.266 20.631 8.546 5.279 5.28 8.545 12.575 8.545 20.63a29.04 29.04 0 0 1-5.59 17.176h8.531c9.305 0 17.73 3.772 23.83 9.872s9.871 14.524 9.871 23.831c0 9.306-3.771 17.731-9.871 23.831a33.619 33.619 0 0 1-18.371 9.431l-20.719 342.798a5.988 5.988 0 0 1-5.977 5.635v.014H238.531a6 6 0 0 1-6-6v-.032zm16.881-409.379h186.875a6 6 0 1 1 0 12H217.295a21.633 21.633 0 0 0-15.346 6.356c-3.927 3.926-6.355 9.353-6.355 15.346s2.429 11.42 6.355 15.346a21.635 21.635 0 0 0 15.346 6.356h250.381a6 6 0 0 1 0 12H223.857l20.309 336.005h222.126l20.67-341.975v-.031a6 6 0 0 1 6-6h.201c5.992 0 11.42-2.429 15.346-6.356 3.926-3.926 6.355-9.353 6.355-15.346s-2.428-11.42-6.355-15.346a21.635 21.635 0 0 0-15.346-6.356h-32.117v-12a17.12 17.12 0 0 0 12.146-5.03 17.124 17.124 0 0 0 5.029-12.146c0-4.744-1.922-9.038-5.029-12.146a17.12 17.12 0 0 0-12.146-5.03H249.412a17.12 17.12 0 0 0-12.146 5.03 17.124 17.124 0 0 0-5.029 12.146c-.001 9.487 7.689 17.177 17.175 17.177z"></path><path d="M361.229 513.988a6 6 0 1 1-12 0V263.811a6 6 0 0 1 12 0v250.177zm50.089-11.508a6 6 0 0 1-12 0V275.32a6 6 0 0 1 12 0v227.16zm-99.814 0a6 6 0 0 1-12 0V275.32a6 6 0 0 1 12 0v227.16z"></path></g><path fill="#010101" d="m999.332 279.31-85.476 18.857a5.977 5.977 0 0 1-2.577-11.672l93.268-20.578a5.998 5.998 0 0 1 7.738 6.454l-11.887 95.281a5.999 5.999 0 0 1-6.68 5.227 5.999 5.999 0 0 1-5.226-6.68l10.84-86.889zm22.516-24.715-85.475 18.858a5.976 5.976 0 1 1-2.577-11.672l91.89-20.274 142.698-156.634.004-.004.188-.203-.004-.003.001-.001.067-.065c6.388-6.862 14.949-10.544 23.671-10.95 8.813-.411 17.782 2.541 24.819 8.952l.004.004.203.188.004-.004.001.001.065.067c6.862 6.388 10.544 14.95 10.95 23.672.41 8.813-2.542 17.783-8.953 24.82a5.99 5.99 0 1 1-8.859-8.063 22.494 22.494 0 0 0 5.859-16.243 22.433 22.433 0 0 0-7.112-15.376 5.949 5.949 0 0 1-.435-.394h-.001l.002-.001a22.49 22.49 0 0 0-16.033-5.669 22.429 22.429 0 0 0-15.375 7.112c-.123.15-.254.295-.394.435h-.001l-.002-.002-142.489 156.404-11.65 93.389a5.999 5.999 0 0 1-11.907-1.453l10.841-86.891zm-45.032 49.43-85.476 18.858a5.978 5.978 0 0 1-7.125-4.547 5.978 5.978 0 0 1 4.547-7.125l93.266-20.577a5.999 5.999 0 0 1 7.741 6.452l-11.887 95.282a5.995 5.995 0 0 1-6.68 5.225 5.997 5.997 0 0 1-5.227-6.678l10.841-86.89zM954.3 328.738l-85.475 18.859a5.978 5.978 0 0 1-2.578-11.672l93.266-20.578a5.998 5.998 0 0 1 7.741 6.452l-11.887 95.279a5.998 5.998 0 0 1-11.907-1.453l10.84-86.887zm-22.516 24.715-85.475 18.859a5.978 5.978 0 0 1-2.578-11.672L937 340.063a5.998 5.998 0 0 1 7.738 6.453l-11.887 95.279a5.998 5.998 0 0 1-11.907-1.453l10.84-86.889zm-22.515 24.715-85.475 18.859a5.977 5.977 0 0 1-2.578-11.672l93.266-20.578a5.998 5.998 0 0 1 7.741 6.453l-11.887 95.279a5.998 5.998 0 0 1-11.907-1.453l10.84-86.888zm-16.805 11.215a5.975 5.975 0 0 1 7.125 4.547 5.978 5.978 0 0 1-4.547 7.125l-93.764 20.688a5.977 5.977 0 1 1-2.578-11.672l93.764-20.688zm-4.664 5.109a5.997 5.997 0 1 1 11.907 1.453l-11.887 95.279a6 6 0 0 1-6.68 5.227 6 6 0 0 1-5.227-6.68l11.887-95.279zm-23.563 33.106-85.476 18.857a5.975 5.975 0 0 1-7.124-4.547 5.976 5.976 0 0 1 4.547-7.125l93.27-20.578a5.997 5.997 0 0 1 7.737 6.453l-11.887 95.281a5.999 5.999 0 0 1-11.907-1.453l10.84-86.888zm-22.515 24.715-85.476 18.857a5.977 5.977 0 0 1-2.578-11.672l93.267-20.576a6 6 0 0 1 7.741 6.451l-11.887 95.281a5.999 5.999 0 0 1-11.907-1.453l10.84-86.888zm-22.516 24.714-80.334 17.725a5.976 5.976 0 0 1-7.125-4.549 5.974 5.974 0 0 1 4.547-7.123l88.123-19.443a5.999 5.999 0 0 1 7.742 6.451l-11.235 90.057a5.999 5.999 0 0 1-11.907-1.453l10.189-81.665zm-22.517 24.715-56.973 12.568a5.977 5.977 0 0 1-2.577-11.672l64.762-14.289a5.999 5.999 0 0 1 7.742 6.453l-8.273 66.316a5.996 5.996 0 0 1-6.68 5.227 5.997 5.997 0 0 1-5.227-6.68l7.226-57.923zm-17.303 11.322a5.997 5.997 0 0 1 7.741 6.453l-4.586 36.758a5.998 5.998 0 0 1-11.906-1.453l3.539-28.367-27.884 6.152a5.976 5.976 0 1 1-2.578-11.672l35.674-7.871zm162.972 26.68c2.046-5.293 1.746-10.928-.391-15.758-2.132-4.818-6.098-8.822-11.389-10.867s-10.927-1.746-15.758.391c-4.818 2.133-8.822 6.098-10.867 11.389s-1.746 10.928.391 15.758c2.133 4.818 6.098 8.822 11.389 10.867 5.292 2.045 10.928 1.746 15.758-.391a20.5 20.5 0 0 0 10.867-11.389zm10.579-20.586a32.436 32.436 0 0 1 .578 24.898 32.456 32.456 0 0 1-17.195 18.045 32.436 32.436 0 0 1-24.898.578 32.468 32.468 0 0 1-18.045-17.195 32.445 32.445 0 0 1-.578-24.898 32.462 32.462 0 0 1 17.195-18.045 32.446 32.446 0 0 1 24.898-.578 32.471 32.471 0 0 1 18.045 17.195zm17.611-36.263c1.245-3.219 1.061-6.652-.244-9.6a12.475 12.475 0 0 0-6.932-6.617 12.507 12.507 0 0 0-9.6.244 12.475 12.475 0 0 0-6.617 6.932 12.507 12.507 0 0 0 .244 9.6 12.475 12.475 0 0 0 6.932 6.617 12.507 12.507 0 0 0 9.6-.244 12.485 12.485 0 0 0 6.617-6.932zm10.724-14.428a24.415 24.415 0 0 1 .432 18.74 24.44 24.44 0 0 1-12.945 13.588 24.415 24.415 0 0 1-18.74.432 24.44 24.44 0 0 1-13.588-12.945 24.415 24.415 0 0 1-.432-18.74 24.44 24.44 0 0 1 12.945-13.588c5.721-2.531 12.42-2.875 18.741-.432s11.05 7.21 13.587 12.945zM815.388 364.416a32.394 32.394 0 0 1-10.946 22.338 32.377 32.377 0 0 1-21.521 8.105 20.572 20.572 0 0 1-5.646 8.145 20.54 20.54 0 0 1-14.555 5.119v.004h-.001l-.375-.023a20.564 20.564 0 0 1-14.179-6.945 20.551 20.551 0 0 1-5.119-14.555h-.003v-.002l.023-.375a20.51 20.51 0 0 1 4.204-11.23 20.763 20.763 0 0 1 4.313-4.184 32.405 32.405 0 0 1-1.049-10.494 32.395 32.395 0 0 1 10.947-22.338 32.381 32.381 0 0 1 23.529-8.039 32.401 32.401 0 0 1 22.338 10.945 32.388 32.388 0 0 1 8.04 23.529zm-18.867 13.338c3.94-3.471 6.558-8.441 6.914-14.088a20.453 20.453 0 0 0-5.086-14.857c-3.473-3.941-8.443-6.559-14.088-6.914a20.454 20.454 0 0 0-14.858 5.086c-3.94 3.473-6.558 8.443-6.915 14.088-.111 1.777.002 3.51.318 5.17.322 1.691.86 3.324 1.587 4.863l2.868 6.078-6.383 2.148a8.645 8.645 0 0 0-4.092 2.936 8.603 8.603 0 0 0-1.766 4.707l-.001.008a8.622 8.622 0 0 0 2.146 6.258 8.61 8.61 0 0 0 5.923 2.914h.007a8.623 8.623 0 0 0 6.258-2.146 8.603 8.603 0 0 0 2.891-5.637v-7.07l7.056 1.27c.187.033.575.086 1.169.158.471.057.871.096 1.194.117a20.462 20.462 0 0 0 14.858-5.089zM-863.85 1132.584c-5.705-6.729-13.611-10.511-21.777-11.184-8.168-.672-16.588 1.768-23.324 7.477-6.729 5.706-10.51 13.61-11.184 21.778-.672 8.167 1.768 16.587 7.477 23.322a31.816 31.816 0 0 0 13.291 9.312 32.238 32.238 0 0 0 16.283 1.58l5.963-.966.904 5.981a16.903 16.903 0 0 0 1.33 4.476l-.02.009a17.113 17.113 0 0 0 2.529 3.961c3.029 3.575 7.234 5.584 11.582 5.942s8.828-.938 12.41-3.975c3.574-3.03 5.584-7.236 5.941-11.583a16.963 16.963 0 0 0-3.975-12.409 17.008 17.008 0 0 0-3.48-3.127 16.931 16.931 0 0 0-4.217-2.042l-5.748-1.868 1.928-5.726a32.218 32.218 0 0 0 1.107-16.304 31.819 31.819 0 0 0-7.02-14.654zm-20.793-23.137c11.209.924 22.072 6.132 29.934 15.403a43.77 43.77 0 0 1 9.646 20.139 44.13 44.13 0 0 1-.107 17.063 29.04 29.04 0 0 1 7.893 6.519 28.899 28.899 0 0 1 6.787 21.127 28.911 28.911 0 0 1-10.162 19.74c-6.111 5.182-13.738 7.396-21.127 6.787s-14.553-4.045-19.738-10.162a28.924 28.924 0 0 1-4.268-6.734h-.023a27.978 27.978 0 0 1-.859-2.109 44.042 44.042 0 0 1-16.824-2.681c-6.881-2.536-13.223-6.833-18.307-12.827-7.855-9.266-11.211-20.832-10.289-32.041.924-11.21 6.131-22.073 15.404-29.935 9.263-7.854 20.831-11.212 32.04-10.289zm7.864-50.681-.002-.002a16.95 16.95 0 0 0-11.582-5.942 16.972 16.972 0 0 0-12.408 3.973l-.002.002c-3.574 3.03-5.584 7.235-5.941 11.583a16.964 16.964 0 0 0 3.975 12.409c3.029 3.575 7.234 5.584 11.582 5.942s8.828-.938 12.408-3.974l.002-.001a16.956 16.956 0 0 0 5.941-11.583 16.965 16.965 0 0 0-3.973-12.407zm-10.6-17.898a28.904 28.904 0 0 1 19.734 10.157l.004.005a28.895 28.895 0 0 1 6.787 21.126 28.912 28.912 0 0 1-10.158 19.738l-.004.002c-6.111 5.182-13.738 7.396-21.127 6.787s-14.553-4.044-19.738-10.161a28.901 28.901 0 0 1-6.787-21.128 28.912 28.912 0 0 1 10.158-19.738l.004-.002a28.905 28.905 0 0 1 21.127-6.786zm-13.392 15.926-.002.001.002-.001zm22.021 25.963.002-.001-.002.001zm56.646 3.083a10.015 10.015 0 0 0-6.84-3.504 10.034 10.034 0 0 0-7.33 2.344v.002a10.009 10.009 0 0 0-3.504 6.839 10.027 10.027 0 0 0 2.344 7.329v.001a10.015 10.015 0 0 0 6.84 3.504 10.03 10.03 0 0 0 7.33-2.345 10.009 10.009 0 0 0 3.504-6.84 10.02 10.02 0 0 0-2.344-7.33zm-5.855-15.457a21.975 21.975 0 0 1 14.996 7.723 21.958 21.958 0 0 1 5.156 16.049 21.967 21.967 0 0 1-7.723 14.996 21.954 21.954 0 0 1-16.049 5.157 21.972 21.972 0 0 1-14.994-7.721l-.002-.003a21.955 21.955 0 0 1-5.156-16.048 21.964 21.964 0 0 1 7.721-14.994l.002-.002a21.959 21.959 0 0 1 16.049-5.157zm-8.314 14.297zm-1.161 14.17zm-373.759-215.727a21.558 21.558 0 0 1 6.063-15.4 21.557 21.557 0 0 1 15.174-6.604 21.558 21.558 0 0 1 15.4 6.061c3.98 3.844 6.498 9.205 6.604 15.175s-2.219 11.417-6.061 15.399a21.559 21.559 0 0 1-15.176 6.605 21.555 21.555 0 0 1-15.398-6.063 21.544 21.544 0 0 1-6.606-15.173zm14.695-7.068c-1.709 1.771-2.744 4.197-2.697 6.855s1.168 5.045 2.939 6.754 4.195 2.744 6.854 2.697a9.602 9.602 0 0 0 6.754-2.939 9.588 9.588 0 0 0 2.697-6.854c-.047-2.658-1.166-5.045-2.938-6.755s-4.197-2.743-6.855-2.696-5.045 1.166-6.754 2.938zm-39.617 64.236c-.139-7.844 2.914-15.002 7.963-20.234 5.051-5.232 12.096-8.539 19.939-8.678s15.002 2.914 20.234 7.965c5.232 5.049 8.539 12.094 8.678 19.938s-2.914 15.002-7.965 20.234c-5.049 5.232-12.094 8.539-19.938 8.678s-15.002-2.914-20.234-7.964-8.539-12.096-8.677-19.939zm16.597-11.902a16.362 16.362 0 0 0-4.6 11.689c.08 4.531 1.99 8.602 5.012 11.518s7.156 4.68 11.689 4.6c4.531-.08 8.602-1.99 11.518-5.012s4.68-7.157 4.6-11.689c-.08-4.531-1.99-8.602-5.012-11.518s-7.156-4.68-11.689-4.6a16.359 16.359 0 0 0-11.518 5.012zm445.37-181.399-98.131 98.161 6.666 6.667c28.57-28.569-11.768 11.784 15.342-15.312 26.883-26.865 63.02-62.981 82.801-82.905l.281-.281.139-.123.045-.022a4.701 4.701 0 0 0 1.316-3.279 4.717 4.717 0 0 0-1.406-3.331h-.023l.012-.012a4.692 4.692 0 0 0-3.32-1.355 4.705 4.705 0 0 0-3.33 1.404v.023h-.002l-.01-.012c-.123.125-.15.148-.201.197l-.023.023c-.006.007-.006.006 0-.002l-.006-.006-.15.165zm-228.291 243.952c-.252.251-.51.488-.773.712a124090.96 124090.96 0 0 1 39.732 39.749 6.329 6.329 0 1 1-8.951 8.951l-87.43-87.429c-2.473-2.473-2.473-6.48 0-8.952s6.48-2.472 8.951 0c12.938 12.931 25.873 25.86 38.807 38.791.225-.264.461-.522.713-.774 33.182-33.195 87.891-87.916 129.484-129.497l-3.088-3.087-4.23-4.23 4.23-4.23 102.361-102.393.002.002c.158-.17.25-.26.34-.346h.002l.047-.045v-.023l.012.012a16.61 16.61 0 0 1 11.756-4.908 16.629 16.629 0 0 1 11.816 4.836h.023l-.012.012a16.616 16.616 0 0 1 4.91 11.757 16.64 16.64 0 0 1-4.814 11.793c-.223.228-.4.384-.57.531l-.016.017.008.008-.125.109c-19.84 19.982-55.799 55.92-82.578 82.684-13.523 13.516 27.949-27.936-19.539 19.555l-4.242 4.241-4.242-4.241-3.094-3.094-129.49 129.489zm-204.047 193.834a5.976 5.976 0 0 1 2.203-8.156 5.972 5.972 0 0 1 8.156 2.202l5.961 10.375a5.972 5.972 0 0 1-2.203 8.156 5.973 5.973 0 0 1-8.156-2.203l-5.961-10.374zm8.156-8.156a5.974 5.974 0 0 1-5.953 10.359l-10.375-5.962a5.975 5.975 0 0 1 5.953-10.359l10.375 5.962zm8.019-8.019a5.974 5.974 0 0 1 10.359-5.953l27.752 48.296a5.974 5.974 0 1 1-10.359 5.953l-27.752-48.296zm8.157-8.157a5.974 5.974 0 0 1-5.953 10.359l-48.297-27.752a5.975 5.975 0 0 1 5.953-10.359l48.297 27.752zm8.019-8.019a5.976 5.976 0 0 1 2.203-8.156 5.972 5.972 0 0 1 8.156 2.203l40.908 71.191a5.975 5.975 0 0 1-10.359 5.953l-40.908-71.191zm8.156-8.156a5.974 5.974 0 0 1-5.953 10.359l-71.191-40.908a5.974 5.974 0 0 1 5.953-10.359l71.191 40.908zm8.02-8.02a5.974 5.974 0 0 1 10.359-5.953l50.285 87.509a5.974 5.974 0 1 1-10.359 5.953l-50.285-87.509zm8.156-8.156a5.974 5.974 0 0 1-5.953 10.359l-87.51-50.284a5.974 5.974 0 1 1 5.953-10.359l87.51 50.284zm8.02-8.02a5.976 5.976 0 0 1 2.203-8.156 5.972 5.972 0 0 1 8.156 2.203l57.066 99.311a5.976 5.976 0 0 1-2.203 8.156 5.972 5.972 0 0 1-8.156-2.203l-57.066-99.311zm8.156-8.156a5.974 5.974 0 0 1-5.953 10.359l-99.311-57.065a5.973 5.973 0 0 1-2.203-8.156 5.972 5.972 0 0 1 8.156-2.203l99.311 57.065zm8.02-8.02a5.974 5.974 0 0 1 10.359-5.953l61.727 107.423a5.975 5.975 0 0 1-10.359 5.953l-61.727-107.423zm8.156-8.156a5.974 5.974 0 0 1-5.953 10.359l-107.422-61.728a5.974 5.974 0 0 1 5.953-10.359l107.422 61.728zm8.019-8.019a5.976 5.976 0 0 1 2.203-8.156 5.972 5.972 0 0 1 8.156 2.203l64.418 112.107a5.975 5.975 0 0 1-10.359 5.953l-64.418-112.107zm8.157-8.157a5.974 5.974 0 0 1-5.953 10.359l-112.107-64.419a5.975 5.975 0 0 1 5.953-10.359l112.107 64.419zm8.019-8.019a5.975 5.975 0 0 1 10.359-5.953l65.158 113.394a5.972 5.972 0 0 1-2.203 8.156 5.973 5.973 0 0 1-8.156-2.203l-65.158-113.394zm8.156-8.156a5.974 5.974 0 0 1-5.953 10.359l-113.395-65.158a5.975 5.975 0 0 1 5.953-10.359l113.395 65.158zm8.02-8.02a5.974 5.974 0 0 1 10.359-5.953l65.158 113.394a5.974 5.974 0 1 1-10.359 5.954l-65.158-113.395zm8.156-8.156a5.974 5.974 0 0 1-5.953 10.359l-113.395-65.158a5.975 5.975 0 0 1 5.953-10.359l113.395 65.158zm8.02-8.02a5.975 5.975 0 0 1 10.359-5.953l65.158 113.394a5.972 5.972 0 0 1-2.203 8.156 5.973 5.973 0 0 1-8.156-2.203l-65.158-113.394zm8.156-8.156a5.974 5.974 0 0 1-5.953 10.359l-113.395-65.159a5.976 5.976 0 0 1-2.203-8.156 5.977 5.977 0 0 1 8.156-2.203l113.395 65.159zm8.019-8.019a5.974 5.974 0 0 1 10.359-5.953l65.158 113.394a5.974 5.974 0 1 1-10.359 5.954l-65.158-113.395zm8.157-8.157a5.974 5.974 0 0 1-5.953 10.359l-113.395-65.158a5.977 5.977 0 0 1-2.203-8.157 5.977 5.977 0 0 1 8.156-2.203l113.395 65.159zm8.019-8.019a5.975 5.975 0 0 1 10.359-5.953l65.158 113.394a5.972 5.972 0 0 1-2.203 8.156 5.973 5.973 0 0 1-8.156-2.202l-65.158-113.395zm8.157-8.156a5.974 5.974 0 0 1-5.953 10.359l-113.395-65.159a5.976 5.976 0 0 1-2.203-8.156 5.977 5.977 0 0 1 8.156-2.203l113.395 65.159zm253.353-245.474-.037.039.023-.024.014-.015zm-6.932-6.406-.004-.004-.021.023.006.006.019-.025zm-.004-.004.004.004c.049-.059.139-.163.037-.051l-.041.047zM-128.736 972.441l13.903 124.061-13.903-124.061zm-137.76 71.203a9.994 9.994 0 0 0-2.982 7.072 10.059 10.059 0 0 0 2.922 7.15 9.993 9.993 0 0 0 7.073 2.981 10.056 10.056 0 0 0 7.113-2.887l-.011-.012.047-.023a9.993 9.993 0 0 0 2.981-7.072 10.056 10.056 0 0 0-2.887-7.113l-.011.011-.023-.047a9.989 9.989 0 0 0-7.073-2.981 10.055 10.055 0 0 0-7.149 2.921zm-242.316-121.775v-.004a26.828 26.828 0 0 1 .39-10.34h-19.896a24.712 24.712 0 0 0-17.531 7.26c-4.485 4.486-7.26 10.684-7.26 17.53s2.774 13.045 7.26 17.53a24.715 24.715 0 0 0 17.531 7.261c234.131 0 173.515.011 195.586.007 130.594-.02 123.947-.041 195.588-.041v.02a7.4 7.4 0 0 1 .258.004c.319.015.531.024.587.025.395.01-.244-.015.567-.015a24.706 24.706 0 0 0 17.53-7.261c4.486-4.485 7.261-10.684 7.261-17.53s-2.775-13.044-7.261-17.53a24.716 24.716 0 0 0-17.53-7.26c-.812 0-.173-.024-.567-.015l-.117.004a6.228 6.228 0 0 1-.728.044c-71.641 0-64.994-.021-195.588-.04-15.52-.003 9.809.001-55.175.005a29.25 29.25 0 0 1-5.634 18.132c-4.432 6.073-11.178 10.455-19.186 11.706h-.002c-7.998 1.248-15.75-.865-21.815-5.291-6.073-4.433-10.455-11.179-11.706-19.188a29.388 29.388 0 0 1-.344-5.357h-9.292c.157.666.289 1.344.396 2.031l.001.001c1.147 7.352-.797 14.478-4.865 20.054-4.075 5.584-10.277 9.613-17.641 10.763h-.004c-7.352 1.147-14.476-.796-20.053-4.864-5.581-4.075-9.61-10.278-10.76-17.641zm6.731-22.342a26.89 26.89 0 0 1 15.773-8.478h.002c7.353-1.148 14.479.795 20.055 4.865a27.226 27.226 0 0 1 4.043 3.621l18.557.005a29.67 29.67 0 0 1 2.693-4.476c4.432-6.073 11.179-10.455 19.188-11.706h.002c7.998-1.249 15.748.865 21.814 5.292a29.376 29.376 0 0 1 9.121 10.903l58.102.011c22.072.003-50.188-.007 195.588-.007.09 0 .18.002.269.006l.295-.007c.865-.021.51-.032.849-.032 10.158 0 19.356 4.118 26.015 10.776 6.658 6.657 10.776 15.855 10.776 26.014 0 10.159-4.118 19.356-10.776 26.015a36.813 36.813 0 0 1-13.455 8.576l14.292 127.53a5.99 5.99 0 0 1-11.906 1.312l-14.193-126.651c-.25.006-.501.009-.752.009-.339 0 .017-.012-.849-.032l-.563-.016v.015h-4.067l14.049 125.363a5.99 5.99 0 0 1-11.906 1.312l-2.107-18.808a28.937 28.937 0 0 1-5.672 7.923l.001.008.008.008h-.001l-.006.006 1.07 9.551a5.989 5.989 0 0 1-9.456 5.513 43.705 43.705 0 0 1-1.459 7.729 43.839 43.839 0 0 1-11.401 19.246c-8.622 8.524-19.893 12.746-31.142 12.682-11.262-.064-22.498-4.424-31.037-13.061a43.73 43.73 0 0 1-12.438-26.254 5.977 5.977 0 0 1-3.005-5.116l-.453-30.795a21.838 21.838 0 0 1-8.295 3.862l.014 22.284c4.102 5.26 6.132 11.611 6.096 17.954-.042 7.43-2.918 14.842-8.614 20.473-5.681 5.616-13.11 8.399-20.526 8.356-7.43-.043-14.842-2.918-20.473-8.613-5.617-5.682-8.399-13.111-8.356-20.527a29.052 29.052 0 0 1 3.076-12.862 6.686 6.686 0 0 1-.003-.201l-.078-126.036-6.471-.001.077 126.037a5.977 5.977 0 0 1-11.954 0l-.077-126.038-6.472-.002.078 126.04a5.977 5.977 0 0 1-11.954 0l-.077-126.039-6.472.001.077 126.038a5.977 5.977 0 0 1-11.954 0l-.079-126.035-6.471.002.077 126.034a5.977 5.977 0 0 1-11.954 0l-.077-126.032-6.472.001.078 126.031a5.977 5.977 0 0 1-11.954 0l-.078-126.028-6.471.001.078 126.027a5.977 5.977 0 0 1-11.954 0l-.078-126.024-6.471.002.078 126.022a5.978 5.978 0 0 1-11.954 0l-.078-126.02-6.471.002.077 126.018a5.978 5.978 0 0 1-11.954 0l-.077-126.015-7.326.002-2.368 126.099a5.975 5.975 0 0 1-6.091 5.859 5.975 5.975 0 0 1-5.859-6.092l2.363-125.862-9.567.003-4.371 126.114a5.978 5.978 0 0 1-11.947-.422l4.357-125.689-9.511.002L-522.425 1100a5.978 5.978 0 0 1-11.787-1.994l21.051-124.901-9.26.001-47.021 128.292a5.992 5.992 0 0 1-11.251-4.125l45.729-124.766a36.711 36.711 0 0 1-19.37-10.178c-6.657-6.658-10.775-15.855-10.775-26.015 0-10.158 4.118-19.356 10.775-26.014 6.658-6.658 15.857-10.776 26.016-10.776l26.237.003zm5.082 20.516a14.972 14.972 0 0 0 5.98 9.811 15.003 15.003 0 0 0 11.195 2.708l.004-.001a14.968 14.968 0 0 0 9.811-5.98 15.002 15.002 0 0 0 2.708-11.195l-.001-.002a14.97 14.97 0 0 0-5.98-9.813 14.997 14.997 0 0 0-11.195-2.707h-.002a14.972 14.972 0 0 0-9.813 5.98 14.997 14.997 0 0 0-2.707 11.195v.004zm62.562-4.989a17.332 17.332 0 0 0 6.924 11.36 17.37 17.37 0 0 0 12.957 3.135h.002a17.327 17.327 0 0 0 11.357-6.924 17.362 17.362 0 0 0 3.136-12.957v-.003a17.328 17.328 0 0 0-6.925-11.358 17.366 17.366 0 0 0-12.956-3.135l-.001.001a17.326 17.326 0 0 0-11.359 6.924 17.363 17.363 0 0 0-3.135 12.957zm212.937 161.844c-6.282 6.209-9.452 14.374-9.499 22.553a31.938 31.938 0 0 0 9.26 22.704 31.876 31.876 0 0 0 22.553 9.498 31.93 31.93 0 0 0 22.704-9.26 31.77 31.77 0 0 0 8.261-13.949 32.212 32.212 0 0 0 .337-16.345l-1.421-5.885 5.897-1.357c1.5-.345 2.971-.902 4.367-1.672a16.979 16.979 0 0 0 3.74-2.813l.008.008.017-.008a16.945 16.945 0 0 0 5.051-11.988 17.008 17.008 0 0 0-4.899-12.054l-.012.012v-.001l-.023-.047a16.947 16.947 0 0 0-11.988-5.051 17.008 17.008 0 0 0-12.09 4.935 16.994 16.994 0 0 0-2.848 3.72 16.877 16.877 0 0 0-1.717 4.341l-1.429 5.887-5.837-1.48a32.232 32.232 0 0 0-16.348.138 31.867 31.867 0 0 0-14.084 8.114zm-12.641-3.67a44.314 44.314 0 0 1 4.25-4.86 44.424 44.424 0 0 1 4.85-4.152l-3.475-91.143h-7.1l1.475 100.155zm20.838-15.179a43.681 43.681 0 0 1 9.141-2.08l-5.271-82.896h-7.11l3.24 84.976zm20.995-4.379a28.969 28.969 0 0 1 4.679-6.023 29.217 29.217 0 0 1 2.862-2.484l-6.095-72.09h-6.57l5.124 80.597zm19.099-13.769a29.13 29.13 0 0 1 8.767-.474l-7.436-66.354h-6.982l5.651 66.828zm21.297 3.774a29.065 29.065 0 0 1 5.248 4.193l.012-.011.023.047a29.036 29.036 0 0 1 2.002 2.245l-8.638-77.076h-6.56l7.913 70.602zm-137.406 56.553a16.95 16.95 0 0 0-5.051 11.989 17.007 17.007 0 0 0 4.935 12.09 16.945 16.945 0 0 0 11.988 5.051 17.011 17.011 0 0 0 12.089-4.935 16.942 16.942 0 0 0 5.052-11.988 17.011 17.011 0 0 0-4.935-12.09 16.95 16.95 0 0 0-11.989-5.052 17.008 17.008 0 0 0-12.089 4.935zm-1.986-13.318c2.065-1.136 4.24-2 6.473-2.594l-.068-111.246h-6.475l.07 113.84zm18.426-3.225c2.205.342 4.378.938 6.471 1.788l-.008-13.81a21.884 21.884 0 0 1-6.473-3.457l.01 15.479zm26.188-50.875-.88-59.737h-6.953l.035 56.253a21.9 21.9 0 0 1 7.798 3.484zm-19.751-2.9-.035-56.838-6.47-.001.037 60.306a21.832 21.832 0 0 1 6.468-3.467zm119.494-56.837 13.832 123.429-13.832-123.429zm-18.282 0 7.604 67.857-7.604-67.857zm13.418 119.75.413 3.679-.413-3.679zm-32.401-119.75 6.439 68.178-6.439-68.178zm-19.099-.001 5.252 82.605-5.252-82.605zm-18.752 0 4.075 86.896-4.075-86.896zm-19.506 0 .976 66.268-.976-66.268zm1.304 88.589.323 21.966-.323-21.966zm-20.234-88.589.034 55.721-.034-55.721zm.061 99.705.01 15.997-.01-15.997zm-17.006-99.706.04 65.008-.04-65.008zm.056 90.449.012 19.82-.012-19.82zm-197.845-207.273a24.067 24.067 0 0 0 9.618 15.777 24.109 24.109 0 0 0 17.985 4.354h.002a24.06 24.06 0 0 0 15.775-9.619 24.098 24.098 0 0 0 4.354-17.985v-.002a24.062 24.062 0 0 0-9.617-15.775 24.103 24.103 0 0 0-17.986-4.354h-.001a24.065 24.065 0 0 0-15.776 9.618 24.1 24.1 0 0 0-4.354 17.986zm2.587 25.433c-7.471-5.452-12.861-13.751-14.4-23.604-1.537-9.843 1.063-19.382 6.51-26.846 5.452-7.47 13.752-12.86 23.605-14.399h.002c9.842-1.537 19.379 1.063 26.844 6.51 7.469 5.452 12.859 13.751 14.398 23.604l.001.003c1.537 9.842-1.063 19.38-6.511 26.843-5.451 7.471-13.751 12.861-23.604 14.4h-.001c-9.843 1.537-19.381-1.064-26.844-6.511zm26.844 6.51zm-1.828-11.812h.002-.002zM152.975 1037.027a26.317 26.317 0 0 0 9.834 17.652 26.359 26.359 0 0 0 19.477 5.504 26.317 26.317 0 0 0 17.652-9.834 26.357 26.357 0 0 0 5.504-19.478 26.317 26.317 0 0 0-9.834-17.651 26.364 26.364 0 0 0-19.479-5.505 26.318 26.318 0 0 0-17.65 9.835 26.356 26.356 0 0 0-5.504 19.477zm61.556 145.077h184.008a6 6 0 0 1 0 12h-183.92c.074 7.412.184 15.032.332 22.87h267.91c1.412-9.69-.492-19.795-2.395-29.871-2.436-12.902-4.863-25.766-1.305-39.187 3.818-14.404 7.182-26.852 10.51-39.165 21.162-78.323 40.889-151.33 40.934-206.686.051-62.075-25.447-102.04-104.182-102.104a5.98 5.98 0 0 1-5.686-4.128l-.01.003-9.775-29.721-21.367 13.729-.014.01-49.57 31.853-64.277 41.303c-4.178 10.257-8.695 19.397-13.377 28.866-17.178 34.748-36.586 74.025-44.35 180.459a59.187 59.187 0 0 1 11.014-5.855 59.712 59.712 0 0 1 24.463-4.284 38.471 38.471 0 0 1 1.57-4.521 38.545 38.545 0 0 1 5.4-9.109c6.613-8.295 15.963-13.126 25.736-14.229 9.752-1.102 19.93 1.52 28.217 8.124 8.295 6.612 13.127 15.963 14.23 25.735 1.102 9.754-1.521 19.931-8.127 28.218a38.367 38.367 0 0 1-7.664 7.304 36.946 36.946 0 0 1-4.063 2.53 59.82 59.82 0 0 1 1.262 24.822 59.196 59.196 0 0 1-12.211 27.636v.001c-10.242 12.85-24.725 20.332-39.861 22.041-14.994 1.693-30.635-2.29-43.42-12.344-.047 7.512-.053 15.238-.018 23.189l.006.511zM367.027 733.78l21.105 32.763 22.719-14.6a5.99 5.99 0 0 1 9.068 3.1l10.855 33.008c84.355 1.532 111.84 45.832 111.783 114.015-.047 57.065-19.953 130.74-41.309 209.779-3.656 13.527-7.354 27.211-10.51 39.118-2.869 10.824-.691 22.363 1.492 33.937 2.42 12.821 4.846 25.683 1.41 39.157a6 6 0 0 1-5.902 4.917H209.092v-.022a5.978 5.978 0 0 1-5.977-5.86c-.303-14.43-.48-28.231-.541-41.452-.057-12.451-.008-24.329.133-35.677a59.49 59.49 0 0 1-10.516-27.667c-1.707-15.117 2.355-30.889 12.59-43.731.143-.179.287-.357.432-.534.266-4.326.553-8.538.854-12.662a38.222 38.222 0 0 1-22.422 10.723c-10.504 1.227-20.529-1.935-28.242-8.036-7.717-6.104-13.105-15.142-14.334-25.666-1.227-10.505 1.934-20.529 8.035-28.243 6.104-7.718 15.143-13.106 25.666-14.335 10.506-1.226 20.529 1.936 28.244 8.036a38.57 38.57 0 0 1 7.959 8.546c9.621-73.036 25.926-106.048 40.641-135.813 4.848-9.806 9.52-19.255 13.6-29.453a5.96 5.96 0 0 1 2.455-3.174l22.84-14.676-21.109-32.771a5.986 5.986 0 0 1 1.805-8.273l87.549-56.258a5.987 5.987 0 0 1 8.273 1.804zm11.032 39.238-17.865-27.732-77.475 49.785 17.863 27.73 36.35-23.357 41.127-26.426zm-162.463 307.277-.057.064a48.508 48.508 0 0 0-1.383 1.657c-8.18 10.263-11.424 22.873-10.059 34.966 1.363 12.072 7.334 23.626 17.59 31.8 10.262 8.179 22.873 11.424 34.965 10.059 12.072-1.364 23.627-7.335 31.799-17.59 5.299-6.646 8.527-14.257 9.773-22.057a47.784 47.784 0 0 0-2.398-24.127l-2.102-5.662 5.711-2.049a26.258 26.258 0 0 0 6.418-3.391 26.423 26.423 0 0 0 5.275-5.007c4.549-5.707 6.354-12.724 5.594-19.452a26.31 26.31 0 0 0-9.775-17.673c-5.709-4.549-12.725-6.354-19.453-5.594a26.31 26.31 0 0 0-17.674 9.777 26.395 26.395 0 0 0-3.713 6.25 26.368 26.368 0 0 0-1.854 7.025l-.721 6.013-6.004-.786a47.822 47.822 0 0 0-24.064 3.068 47.209 47.209 0 0 0-17.868 12.709zm82.23 68.409zm-157.219-46.663a16.526 16.526 0 0 0 6.174 11.092 16.582 16.582 0 0 0 12.25 3.454 16.537 16.537 0 0 0 11.092-6.175 16.576 16.576 0 0 0 3.453-12.25 16.534 16.534 0 0 0-6.174-11.091 16.578 16.578 0 0 0-12.25-3.454 16.532 16.532 0 0 0-11.092 6.174 16.58 16.58 0 0 0-3.453 12.25zm-1.232 20.467c-5.748-4.546-9.76-11.274-10.674-19.106-.912-7.813 1.441-15.272 5.984-21.017 4.547-5.747 11.275-9.76 19.107-10.674 7.811-.912 15.271 1.442 21.016 5.985 5.748 4.546 9.76 11.274 10.674 19.106.912 7.813-1.441 15.272-5.984 21.016-4.547 5.747-11.275 9.761-19.107 10.675-7.813.911-15.272-1.442-21.016-5.985zm32.813-249.449a33.323 33.323 0 0 0 23.596 9.896c8.57.031 17.15-3.203 23.707-9.711a33.316 33.316 0 0 0 9.896-23.594c.033-8.571-3.201-17.152-9.709-23.708a33.285 33.285 0 0 0-14.625-8.624 33.695 33.695 0 0 0-17.086-.313l-6.311 1.538-1.477-6.351a17.562 17.562 0 0 0-1.729-4.542 17.69 17.69 0 0 0-2.939-3.886 17.655 17.655 0 0 0-12.494-5.249 17.692 17.692 0 0 0-12.559 5.134l.012.014h-.025a17.65 17.65 0 0 0-5.248 12.493 17.697 17.697 0 0 0 5.133 12.56l.014-.013v.025a17.702 17.702 0 0 0 3.881 2.954 17.533 17.533 0 0 0 4.523 1.799l6.344 1.525-1.58 6.288a33.685 33.685 0 0 0 .158 17.087c1.467 5.359 4.307 10.433 8.518 14.678zm23.595 22.75c-11.871-.045-23.717-4.607-32.719-13.677a46.133 46.133 0 0 1-11.793-20.372 46.584 46.584 0 0 1-1.33-17.8 29.285 29.285 0 0 1-2.018-1.036 30.596 30.596 0 0 1-6.691-5.109l-.012.014v-.025a30.476 30.476 0 0 1-8.877-21.646c.029-7.843 3.037-15.663 9.016-21.604l-.012-.012v-.002h.025a30.488 30.488 0 0 1 21.645-8.877c7.848.029 15.676 3.043 21.619 9.03a30.712 30.712 0 0 1 5.057 6.759c.369.669.713 1.346 1.027 2.028a46.46 46.46 0 0 1 17.809 1.438 46.118 46.118 0 0 1 20.271 11.951c9.008 9.075 13.484 20.938 13.441 32.781-.045 11.871-4.607 23.715-13.678 32.718-9.075 9.009-20.938 13.486-32.78 13.441zm-67.732 30.358c4.891 0 9.318-1.981 12.521-5.185a17.656 17.656 0 0 0 5.186-12.521 17.65 17.65 0 0 0-5.186-12.52 17.65 17.65 0 0 0-12.521-5.186 17.647 17.647 0 0 0-12.52 5.186 17.652 17.652 0 0 0-5.186 12.52 17.65 17.65 0 0 0 5.186 12.521 17.649 17.649 0 0 0 12.52 5.185zm21.644 3.938c-5.539 5.539-13.193 8.966-21.645 8.966s-16.104-3.427-21.643-8.966c-5.541-5.54-8.967-13.192-8.967-21.645 0-8.451 3.426-16.104 8.967-21.644 5.539-5.54 13.191-8.966 21.643-8.966 8.453 0 16.105 3.426 21.645 8.966s8.967 13.192 8.967 21.644c0 8.453-3.428 16.105-8.967 21.645zm31.479 25.686c2.869 0 5.467-1.163 7.346-3.042 1.879-1.88 3.043-4.478 3.043-7.347s-1.164-5.467-3.043-7.347-4.477-3.042-7.346-3.042-5.467 1.162-7.348 3.042c-1.879 1.88-3.041 4.478-3.041 7.347s1.162 5.467 3.041 7.347a10.366 10.366 0 0 0 7.348 3.042zm16.469 6.082c-4.215 4.215-10.037 6.822-16.469 6.822s-12.256-2.607-16.471-6.822c-4.215-4.216-6.822-10.039-6.822-16.471s2.607-12.254 6.822-16.47 10.039-6.823 16.471-6.823 12.254 2.607 16.469 6.823c4.217 4.216 6.824 10.038 6.824 16.47s-2.608 12.254-6.824 16.471zm198.685-160a5.987 5.987 0 1 1 6.468 10.078l-116.572 74.906a5.989 5.989 0 0 1-6.468-10.078l116.572-74.906zm40.86 16.947c19.074-2.449 34.121 1.334 45.773 9.738 16.041 11.568 25.135 31.621 29.158 55.98 3.877 23.478 3.068 51.119-.703 78.897-8.904 65.557-34.813 132.693-54.717 147.882l-10.863 8.289 1.277-13.586c3.143-33.41 3.363-90.304.291-147.525-2.625-48.906-7.65-97.912-15.303-132.457l-1.414-6.383 6.501-.835zm38.789 19.442c-7.928-5.717-18.066-8.705-30.795-8.148 7.027 34.729 11.684 81.36 14.176 127.773 2.59 48.232 2.846 96.363.992 130.702 15.598-25.056 32.33-76.11 39.207-126.746 3.627-26.698 4.424-53.133.75-75.382-3.53-21.363-11.145-38.69-24.33-48.199z"></path><g fill="#010101"><path d="m769.972 870.189 135.977-135.976a5.976 5.976 0 0 1 4.242-1.757v-.002h275.646a6 6 0 0 1 6 6.001v411.674a6 6 0 0 1-6 6h-102.635a6 6 0 0 1-6-6c0-.574.08-1.13.23-1.655 2.254-10.892 4.074-22.158 5.115-32.995.928-9.671 1.24-19.043.686-27.547-2.885-44.349 3.451-67.03 4.914-72.265.082-.297.141-.51.178-.665l.006-.022-.006-.001c1.791-7.58 3.57-15.175 5.35-22.766 1.992-8.506 3.986-17.011 5.994-25.489a6.961 6.961 0 0 0-.836-5.281 6.922 6.922 0 0 0-4.311-3.102 6.965 6.965 0 0 0-5.281.836 6.918 6.918 0 0 0-3.102 4.311c-4.107 17.398-7.09 29.939-10.086 42.545a36979.567 36979.567 0 0 0-8.605 36.223 5.537 5.537 0 0 1-.133.478c-1.439 5.485-4.555 8.657-8.111 10.014-2.002.764-4.08.922-6.07.568-1.875-.332-3.684-1.137-5.268-2.324-3.352-2.511-5.674-6.786-5.307-11.876.018-.255.051-.506.1-.75 1.424-10.631 3.006-21.802 4.65-33.433 3.725-26.33 7.771-54.933 9.443-72.047a6.6 6.6 0 0 0 .023-.35c.107-2.165-.756-4.238-2.219-5.845-1.533-1.686-3.672-2.84-6.023-3.068a9.603 9.603 0 0 0-.428-.029 8.348 8.348 0 0 0-6.107 2.171c-1.85 1.673-3.113 4.154-3.512 6.99l-13.961 99.225a5.851 5.851 0 0 1-.092.499c-.834 4.715-3.182 7.895-5.988 9.523-1.729 1.004-3.607 1.437-5.484 1.313a9.782 9.782 0 0 1-5.273-1.981c-2.697-2.031-4.732-5.684-4.908-10.714-.002-.063-.002-.125-.002-.188h-.021c0-46.284-.006-52.283-.012-58.272-.027-32.962-.057-49.826-.057-58.227a9.074 9.074 0 0 0-2.662-6.431c-1.645-1.645-3.918-2.662-6.43-2.662s-4.785 1.018-6.432 2.662a9.07 9.07 0 0 0-2.662 6.431c0 7.272-.029 24.698-.057 56.669-.006 5.828-.012 11.668-.012 56.715 0 .273-.02.544-.055.808-.285 4.104-2.498 7.117-5.504 8.876a12.176 12.176 0 0 1-5.146 1.622c-1.76.143-3.59-.101-5.313-.755-3.568-1.352-6.569-4.326-7.5-9.088a17806.199 17806.199 0 0 0-6.415-36.759c-3.338-19.068-6.68-38.143-10.269-59.324h-.004a9.046 9.046 0 0 0-3.714-5.871 9.095 9.095 0 0 0-6.815-1.529l-.007.002a9.047 9.047 0 0 0-5.866 3.712 9.097 9.097 0 0 0-1.528 6.816v.003a90998.079 90998.079 0 0 0 18.932 109.858c.046.272.073.544.083.813.461 4.882 5.064 57.373-10.39 62.304a5.975 5.975 0 0 1-6.224-1.674l-.011.01a8593.65 8593.65 0 0 0-18.47-20.273c-9.736-10.664-19.474-21.331-28.854-31.764l-.046-.052a12.17 12.17 0 0 0-8.376-3.928 12.178 12.178 0 0 0-8.797 3.151 12.174 12.174 0 0 0-4.004 8.445 12.18 12.18 0 0 0 3.152 8.798c.102.111.197.225.289.342l2.463 2.719.002-.002c-.936-1.037-3.598-3.985.011-.01 19.669 21.67 40.073 44.151 46.628 74.299a5.995 5.995 0 0 1-5.86 7.261v.005H774.163a6 6 0 0 1-6-6v-275.65c0-1.682.693-3.203 1.809-4.293zm142.702-125.733L780.163 876.967v267.163h118.869c-7.457-23.629-24.932-42.883-41.831-61.502-1.604-1.768-.896-.989.001-.001l.008-.008-2.483-2.743a6.292 6.292 0 0 1-.29-.298 24.105 24.105 0 0 1-6.246-17.422c.301-6.192 2.957-12.263 7.895-16.742a24.108 24.108 0 0 1 17.422-6.245c6.141.299 12.16 2.912 16.629 7.771.047.048.092.097.137.146 9.679 10.765 19.244 21.242 28.807 31.717 4.779 5.236 9.561 10.472 14.324 15.71 3.382-10.131.384-42.906.006-46.858-3.163-18.29-6.322-36.592-9.477-54.891-3.135-18.199-6.266-36.398-9.389-54.578a6.132 6.132 0 0 1-.119-.709 20.992 20.992 0 0 1 3.605-15.358 21.04 21.04 0 0 1 13.236-8.56c.257-.063.52-.107.787-.137a20.992 20.992 0 0 1 15.352 3.605 21.04 21.04 0 0 1 8.56 13.237c.063.265.111.534.14.812 3.088 18.211 6.648 38.547 10.209 58.881a16808.21 16808.21 0 0 1 6.122 35.11c.005-8.318.03-25.407.057-54.466.005-5.827.011-11.646.011-56.669 0-5.823 2.361-11.097 6.179-14.914s9.091-6.179 14.915-6.179a21.028 21.028 0 0 1 14.914 6.179 21.032 21.032 0 0 1 6.178 14.914c0 47.189.006 52.353.01 58.227.018 19.333.035 33.507.045 43.419l11.885-84.464c.791-5.619 3.438-10.665 7.355-14.209 3.889-3.517 8.961-5.552 14.686-5.265.293.015.625.041.99.076 5.434.53 10.314 3.127 13.758 6.912 3.516 3.863 5.588 8.984 5.313 14.47-.014.265-.037.567-.07.912-1.73 17.706-5.771 46.27-9.49 72.563-1.762 12.451-3.453 24.413-4.656 33.387-.051.691.182 1.211.525 1.468l.029.02c.189-.206.412-.721.652-1.638.016-.092.035-.183.057-.274 3.891-16.451 6.24-26.327 8.604-36.269 3.748-15.755 7.508-31.57 10.088-42.498a18.9 18.9 0 0 1 8.492-11.764c4.131-2.552 9.217-3.531 14.281-2.336a18.901 18.901 0 0 1 11.764 8.492c2.553 4.131 3.531 9.219 2.336 14.282-2.008 8.479-4.002 16.982-5.994 25.488-1.779 7.592-3.559 15.186-5.35 22.766l-.006-.001c-.053.227-.164.619-.313 1.158-1.359 4.865-7.248 25.947-4.492 68.327.592 9.082.258 19.092-.732 29.422-.875 9.099-2.256 18.411-3.965 27.525h89.348V744.456H912.674zm-46.626 330.121c.447.493.33.363.002-.002l-.002.002zm-8.846 8.05c1.141 1.255 2.594 2.851.008-.008l-.008.008z"></path><path d="M954.341 1217.166c2.434 2.227 2.602 6.004.375 8.438s-6.004 2.602-8.438.375c-.115-.106-40.587-36.888-43.986-66.627a80.735 80.735 0 0 0-3.265-15.222h12.512a93.351 93.351 0 0 1 2.659 13.862c2.892 25.298 40.037 59.076 40.143 59.174zm136.142-73.036a373.338 373.338 0 0 1-2.461 12.025c-6.904 31.174-17.299 58.476-23.111 63.97a5.986 5.986 0 1 1-8.201-8.719c4.441-4.198 13.205-28.773 19.641-57.828a367.19 367.19 0 0 0 1.965-9.448h12.167zM916.19 738.456v136.026c0 3.313-2.688 6-6 6H774.163a6 6 0 0 1-4.191-10.293l135.977-135.976a5.999 5.999 0 0 1 10.24 4.242h.001v.001zm-12 130.026V752.939L788.647 868.482H904.19z"></path></g></svg>