<svg xmlns="http://www.w3.org/2000/svg" fill-rule="evenodd" stroke-linejoin="round" stroke-miterlimit="2" clip-rule="evenodd" viewBox="0 0 32 32" id="account"><path d="M7.054,25.429c-2.497,-2.37 -4.054,-5.719 -4.054,-9.429c-0,-7.175 5.825,-13 13,-13c7.175,0 13,5.825 13,13c-0,3.709 -1.556,7.057 -4.051,9.426c-0.011,-0.225 -0.025,-0.408 -0.04,-0.534c-0.073,-0.58 -0.167,-1.228 -0.289,-1.97c-0.115,-0.698 -0.437,-1.481 -0.891,-2.202c-0.551,-0.876 -1.295,-1.658 -2.035,-2.109c-0.057,-0.034 -0.114,-0.068 -0.169,-0.101c-0.343,-0.201 -0.773,-0.181 -1.095,0.053c-1.244,0.904 -2.775,1.437 -4.428,1.437c-1.654,-0 -3.185,-0.533 -4.429,-1.437c-0.322,-0.234 -0.752,-0.254 -1.094,-0.053c-0.056,0.033 -0.113,0.067 -0.17,0.101c-0.74,0.451 -1.483,1.233 -2.035,2.109c-0.453,0.721 -0.776,1.504 -0.891,2.202c-0.122,0.742 -0.216,1.39 -0.289,1.97c-0.015,0.126 -0.029,0.31 -0.04,0.537Zm8.948,-17.674c-2.593,-0 -4.698,2.105 -4.698,4.697c-0,2.593 2.105,4.698 4.698,4.698c2.592,-0 4.697,-2.105 4.697,-4.698c0,-2.592 -2.105,-4.697 -4.697,-4.697Zm6.988,19.205c-2.019,1.291 -4.418,2.04 -6.99,2.04c-2.571,0 -4.968,-0.748 -6.987,-2.038c-0.001,-0.813 0.028,-1.515 0.066,-1.823c0.07,-0.557 0.16,-1.179 0.278,-1.892c0.077,-0.466 0.308,-0.981 0.61,-1.462c0.289,-0.459 0.645,-0.89 1.024,-1.206c1.457,0.901 3.173,1.421 5.011,1.421c1.837,-0 3.554,-0.52 5.011,-1.421c0.378,0.316 0.734,0.747 1.023,1.206c0.303,0.481 0.534,0.996 0.61,1.462c0.118,0.713 0.209,1.335 0.278,1.892c0.038,0.308 0.068,1.009 0.066,1.821Z" fill="#00c49d" class="color000000 svgShape"></path></svg>