<svg xmlns="http://www.w3.org/2000/svg" fill-rule="evenodd" stroke-linejoin="round" stroke-miterlimit="2" clip-rule="evenodd" viewBox="0 0 32 32" id="retail"><path d="M5,15.53c-1.207,-0.614 -2,-1.763 -2,-3.03c0,-1.353 -0.067,-1.809 0.122,-2.706c0.224,-1.068 1.002,-3.858 1.495,-5.596c0.36,-1.299 1.543,-2.198 2.891,-2.198c3.712,-0 13.26,0 16.978,0c1.352,0 2.537,0.904 2.892,2.203c0.488,1.742 1.253,4.525 1.478,5.591c0.188,0.897 0.144,1.353 0.144,2.706c0,1.267 -0.793,2.416 -2,3.03l0,11.47c-0,0.796 -0.316,1.559 -0.879,2.121c-0.562,0.563 -1.325,0.879 -2.121,0.879l-16,-0c-0.796,0 -1.559,-0.316 -2.121,-0.879c-0.563,-0.562 -0.879,-1.325 -0.879,-2.121l0,-11.47Zm20,0.47c-1.211,0 -2.274,-0.467 -3,-1.191c-0.726,0.724 -1.789,1.191 -3,1.191c-1.211,0 -2.274,-0.467 -3,-1.191c-0.726,0.724 -1.789,1.191 -3,1.191c-1.211,0 -2.274,-0.467 -3,-1.191c-0.726,0.724 -1.789,1.191 -3,1.191l0,11c0,0.265 0.105,0.52 0.293,0.707c0.187,0.188 0.442,0.293 0.707,0.293l4,0l0,-5c-0,-1.061 0.421,-2.078 1.172,-2.828c0.75,-0.751 1.767,-1.172 2.828,-1.172c1.061,-0 2.078,0.421 2.828,1.172c0.751,0.75 1.172,1.767 1.172,2.828l0,5l4,0c0.265,0 0.52,-0.105 0.707,-0.293c0.188,-0.187 0.293,-0.442 0.293,-0.707l0,-11Zm-2,-3.5c-0,0.884 0.939,1.5 2,1.5c1.061,-0 2,-0.616 2,-1.5c-0,-1.147 0.058,-1.534 -0.102,-2.294c-0.219,-1.042 -0.969,-3.761 -1.446,-5.464l-0.001,-0.006c-0.119,-0.434 -0.514,-0.736 -0.965,-0.736c-3.718,-0 -13.266,-0 -16.978,-0c-0.45,-0 -0.844,0.3 -0.964,0.733l-0.002,0.005c-0.482,1.702 -1.244,4.426 -1.463,5.468c-0.16,0.76 -0.079,1.147 -0.079,2.294c0,0.884 0.939,1.5 2,1.5c1.061,-0 2,-0.616 2,-1.5l0,-2.5c0,-0.552 0.448,-1 1,-1c0.552,0 1,0.448 1,1l0,2.5c0,0.884 0.939,1.5 2,1.5c1.061,-0 2,-0.616 2,-1.5l-0,-2.5c0,-0.552 0.448,-1 1,-1c0.552,0 1,0.448 1,1l0,2.5c0,0.884 0.939,1.5 2,1.5c1.061,-0 2,-0.616 2,-1.5l-0,-2.5c0,-0.552 0.448,-1 1,-1c0.552,0 1,0.448 1,1l-0,2.5Zm-9,15.5l4,0l0,-5c0,-0.53 -0.211,-1.039 -0.586,-1.414c-0.375,-0.375 -0.884,-0.586 -1.414,-0.586c-0.53,0 -1.039,0.211 -1.414,0.586c-0.375,0.375 -0.586,0.884 -0.586,1.414l0,5Z"></path></svg>