<svg xmlns="http://www.w3.org/2000/svg" fill-rule="evenodd" stroke-linejoin="round" stroke-miterlimit="2" clip-rule="evenodd" viewBox="0 0 32 32" id="retail"><path d="M10.411,14.397c-0.227,-0.227 -0.595,-0.227 -0.822,-0c-0.626,0.624 -1.545,1.021 -2.589,1.021c-1.907,-0 -3.418,-1.329 -3.418,-2.918c0,-1.293 -0.071,-1.729 0.109,-2.586c0.224,-1.06 0.997,-3.831 1.486,-5.557l0.001,-0.003c0.29,-1.047 1.243,-1.772 2.33,-1.772c3.712,0 13.26,0 16.978,0.001c1.089,-0 2.044,0.727 2.33,1.773l0.001,0.004c0.485,1.731 1.246,4.495 1.469,5.554c0.18,0.857 0.132,1.293 0.132,2.586c-0,1.589 -1.511,2.918 -3.418,2.918c-1.044,-0 -1.963,-0.397 -2.589,-1.021c-0.227,-0.227 -0.595,-0.227 -0.822,-0c-0.626,0.624 -1.545,1.021 -2.589,1.021c-1.044,-0 -1.963,-0.397 -2.589,-1.021c-0.227,-0.227 -0.595,-0.227 -0.822,-0c-0.626,0.624 -1.545,1.021 -2.589,1.021c-1.044,-0 -1.963,-0.397 -2.589,-1.021Zm16.589,2.675l0,9.928c-0,0.796 -0.316,1.559 -0.879,2.121c-0.562,0.563 -1.325,0.879 -2.121,0.879l-4,-0l-0,-5c0,-1.061 -0.421,-2.078 -1.172,-2.828c-0.75,-0.751 -1.767,-1.172 -2.828,-1.172c-1.061,0 -2.078,0.421 -2.828,1.172c-0.751,0.75 -1.172,1.767 -1.172,2.828l0,5l-4,-0c-0.796,0 -1.559,-0.316 -2.121,-0.879c-0.563,-0.562 -0.879,-1.325 -0.879,-2.121l-0,-9.928c0.612,0.222 1.285,0.346 2,0.346c1.125,-0 2.153,-0.309 3,-0.823c0.847,0.514 1.875,0.823 3,0.823c1.125,-0 2.153,-0.309 3,-0.823c0.847,0.514 1.875,0.823 3,0.823c1.125,-0 2.153,-0.309 3,-0.823c0.847,0.514 1.875,0.823 3,0.823c0.715,-0 1.388,-0.124 2,-0.346Z" fill="#00c49d" class="color000000 svgShape"></path></svg>