<svg xmlns="http://www.w3.org/2000/svg" fill-rule="evenodd" stroke-linejoin="round" stroke-miterlimit="2" clip-rule="evenodd" viewBox="0 0 32 32" id="basket"><path d="M25.033,10l2.967,-0c0.53,-0 1.039,0.211 1.414,0.586c0.375,0.375 0.586,0.884 0.586,1.414l-0,4c0,0.53 -0.211,1.039 -0.586,1.414c-0.375,0.375 -0.884,0.586 -1.414,0.586l-24,0c-0.53,0 -1.039,-0.211 -1.414,-0.586c-0.375,-0.375 -0.586,-0.884 -0.586,-1.414l0,-4c-0,-0.53 0.211,-1.039 0.586,-1.414c0.375,-0.375 0.884,-0.586 1.414,-0.586l2.967,-0l4.159,-7.486c0.268,-0.482 0.877,-0.656 1.36,-0.388c0.482,0.268 0.656,0.877 0.388,1.36l-3.619,6.514l13.49,-0l-3.619,-6.514c-0.268,-0.483 -0.094,-1.092 0.388,-1.36c0.483,-0.268 1.092,-0.094 1.36,0.388l4.159,7.486Zm2.866,10l-1.178,7.468c-0.23,1.458 -1.487,2.532 -2.964,2.532l-1.837,0l0.833,-10l5.146,0Zm-7.152,0l-0.834,10l-2.913,0l0,-10l3.747,0Zm-5.747,0l0,10l-2.913,0l-0.834,-10l3.747,0Zm-5.753,0l0.833,10l-1.837,0c-1.477,0 -2.734,-1.074 -2.964,-2.532l-1.178,-7.468l5.146,0Z" fill="#00c49d" class="color000000 svgShape"></path></svg>