<svg xmlns="http://www.w3.org/2000/svg" fill-rule="evenodd" stroke-linejoin="round" stroke-miterlimit="2" clip-rule="evenodd" viewBox="0 0 32 32" id="seo"><path d="M10.955,24.184c-0.962,0.249 -1.98,0.25 -2.957,-0.012c-1.485,-0.398 -2.751,-1.369 -3.519,-2.7l-0.002,-0.003c-0.769,-1.331 -0.977,-2.913 -0.579,-4.398c0.398,-1.485 1.369,-2.751 2.7,-3.519l0.463,-0.268c5.345,-3.086 8.633,-6.649 10.366,-10.679c0.135,-0.314 0.42,-0.537 0.757,-0.592c0.337,-0.055 0.679,0.066 0.906,0.32c1.398,1.56 2.585,3.021 3.618,4.467l0.121,-0.07c0.824,-0.476 1.804,-0.605 2.724,-0.359c0.92,0.247 1.704,0.848 2.18,1.673c0.476,0.825 0.605,1.805 0.359,2.724c-0.247,0.92 -0.848,1.704 -1.673,2.18l-0.119,0.069c0.748,1.646 1.412,3.403 2.057,5.367c0.101,0.307 0.048,0.643 -0.143,0.904c-0.192,0.26 -0.497,0.412 -0.82,0.408c-3.825,-0.05 -7.345,0.332 -11.248,1.983l2.227,3.856c0.215,0.372 0.168,0.839 -0.116,1.161l-2.616,2.966c-0.213,0.241 -0.529,0.365 -0.85,0.333c-0.32,-0.032 -0.605,-0.216 -0.766,-0.495l-3.07,-5.316Zm12.877,-15.724c0.578,0.905 1.104,1.816 1.591,2.754c0.363,-0.211 0.628,-0.558 0.737,-0.963c0.109,-0.408 0.052,-0.842 -0.159,-1.207c-0.211,-0.365 -0.558,-0.632 -0.966,-0.741c-0.406,-0.109 -0.839,-0.052 -1.203,0.157Zm-9.27,11.73c4.019,-1.851 7.625,-2.429 11.45,-2.492c-1.76,-5.005 -3.777,-8.63 -7.419,-12.896c-1.648,3.134 -4.219,6.01 -7.962,8.594c1.743,2.015 3.071,4.269 3.931,6.794Zm-5.626,-5.693c-0.285,0.174 -1.338,0.787 -1.338,0.787c-0.871,0.503 -1.508,1.332 -1.768,2.305c-0.261,0.972 -0.124,2.008 0.379,2.88l0.002,0.003c0.503,0.872 1.332,1.508 2.305,1.768c0.972,0.261 2.008,0.125 2.88,-0.379c-0,0 1.062,-0.608 1.358,-0.767c-0.8,-2.472 -2.095,-4.658 -3.818,-6.597Zm5.391,8.03c-0.482,0.246 -0.971,0.512 -1.468,0.799l-0.067,0.039c0.798,1.381 2.269,3.93 2.269,3.93c0,0 1.22,-1.383 1.22,-1.383l-1.954,-3.385Z"></path></svg>