<svg xmlns="http://www.w3.org/2000/svg" fill-rule="evenodd" stroke-linejoin="round" stroke-miterlimit="2" clip-rule="evenodd" viewBox="0 0 32 32" id="support"><path d="M6.473,15l0.527,0c0.53,-0 1.039,0.211 1.414,0.586c0.375,0.375 0.586,0.884 0.586,1.414l-0,6.623c0,0.53 -0.211,1.039 -0.586,1.414c-0.375,0.375 -0.884,0.586 -1.414,0.586l-2,-0c-1.657,-0 -3,-1.343 -3,-3l0,-4.623c0,-1.48 1.071,-2.709 2.48,-2.955c0.005,-1.798 0.337,-5.548 2.727,-8.655c2.536,-3.296 5.863,-4.39 8.793,-4.39c2.93,-0 6.232,1.061 8.793,4.39c2.408,3.131 2.745,6.869 2.751,8.659c1.397,0.256 2.456,1.48 2.456,2.951l-0,4.623c-0,1.657 -1.343,3 -3,3l-0,1.308c0,1.695 -1.374,3.069 -3.069,3.069l-7.931,0c-0.552,0 -1,-0.448 -1,-1c-0,-0.552 0.448,-1 1,-1l7.931,-0c0.59,-0 1.069,-0.479 1.069,-1.069l0,-1.308c-0.53,-0 -1.039,-0.211 -1.414,-0.586c-0.375,-0.375 -0.586,-0.884 -0.586,-1.414l0,-6.623c-0,-0.53 0.211,-1.039 0.586,-1.414c0.375,-0.375 0.884,-0.586 1.414,-0.586l0.55,0c-0.003,-1.522 -0.286,-4.716 -2.343,-7.39c-2.1,-2.731 -4.804,-3.61 -7.207,-3.61c-2.403,0 -5.127,0.906 -7.207,3.61c-2.043,2.655 -2.319,5.863 -2.32,7.39Zm5.527,6c0,0 0,-2.638 0,-2.637c-1.347,-1.138 -2.203,-2.84 -2.203,-4.74c0,-3.424 2.78,-6.203 6.203,-6.203c3.423,-0 6.203,2.779 6.203,6.203c-0,2.714 -1.748,5.024 -4.178,5.864c-0.325,0.112 -4.552,2.394 -4.552,2.394c-0.31,0.166 -0.684,0.158 -0.986,-0.023c-0.302,-0.18 -0.487,-0.506 -0.487,-0.858Z" fill="#00c49d" class="color000000 svgShape"></path></svg>